<svg width="54" height="54" viewBox="0 0 54 54" fill="none" xmlns="http://www.w3.org/2000/svg">
<path fill-rule="evenodd" clip-rule="evenodd" d="M27 54C41.9117 54 54 41.9117 54 27C54 12.0883 41.9117 0 27 0C12.0883 0 0 12.0883 0 27C0 41.9117 12.0883 54 27 54ZM9.9 17.1C10.1704 30.0297 16.6598 37.8 28.0371 37.8H28.682V30.4027C32.8627 30.8171 36.024 33.8631 37.2928 37.8H43.2C41.5776 31.9153 37.3135 28.6621 34.6512 27.4189C37.3135 25.8856 41.0574 22.1559 41.9518 17.1H36.5854C35.4206 21.2027 31.9683 24.9324 28.682 25.2847V17.1H23.3156V31.4387C19.9876 30.6099 15.7862 26.5901 15.599 17.1H9.9Z" fill="white"/>
</svg>
