<svg width="53" height="25" viewBox="0 0 53 25" fill="none" xmlns="http://www.w3.org/2000/svg">
  <path opacity="0.35" d="M1.81641 2.66666C1.81641 1.74619 2.5626 1 3.48307 1H45.3463C46.2668 1 47.013 1.74619 47.013 2.66667V21.6467C47.013 22.5672 46.2668 23.3134 45.3463 23.3134H3.48307C2.5626 23.3134 1.81641 22.5672 1.81641 21.6467V2.66666Z" stroke="white" stroke-width="2" />
  <path opacity="0.4" d="M50.1582 7.86426V16.4455C51.8846 15.7187 53.0072 14.028 53.0072 12.1549C53.0072 10.2817 51.8846 8.59104 50.1582 7.86426Z" fill="white" />
  <path d="M5.10742 5.62435C5.10742 4.88797 5.70438 4.29102 6.44076 4.29102H42.3895C43.1259 4.29102 43.7228 4.88797 43.7228 5.62435V18.6899C43.7228 19.4263 43.1259 20.0232 42.3895 20.0232H6.44076C5.70438 20.0232 5.10742 19.4263 5.10742 18.6899V5.62435Z" fill="white" />
</svg>