<svg width="37" height="24" viewBox="0 0 37 24" fill="none" xmlns="http://www.w3.org/2000/svg">
  <path fill-rule="evenodd" clip-rule="evenodd" d="M34.3258 0.71582H32.1805C30.9956 0.71582 30.0352 1.6763 30.0352 2.86112V21.4537C30.0352 22.6385 30.9956 23.599 32.1805 23.599H34.3258C35.5106 23.599 36.4711 22.6385 36.4711 21.4537V2.86112C36.4711 1.6763 35.5106 0.71582 34.3258 0.71582ZM22.1687 5.72314H24.314C25.4989 5.72314 26.4593 6.68363 26.4593 7.86844V21.4553C26.4593 22.6402 25.4989 23.6006 24.314 23.6006H22.1687C20.9839 23.6006 20.0234 22.6402 20.0234 21.4553V7.86844C20.0234 6.68363 20.9839 5.72314 22.1687 5.72314ZM14.3006 10.7258H12.1553C10.9705 10.7258 10.01 11.6863 10.01 12.8711V21.4523C10.01 22.6371 10.9705 23.5976 12.1553 23.5976H14.3006C15.4854 23.5976 16.4459 22.6371 16.4459 21.4523V12.8711C16.4459 11.6863 15.4854 10.7258 14.3006 10.7258ZM4.2906 15.0164H2.1453C0.960484 15.0164 0 15.9769 0 17.1617V21.4523C0 22.6371 0.960484 23.5976 2.1453 23.5976H4.2906C5.47542 23.5976 6.4359 22.6371 6.4359 21.4523V17.1617C6.4359 15.9769 5.47542 15.0164 4.2906 15.0164Z" fill="white" />
</svg>