<svg width="246" height="150" viewBox="0 0 246 150" fill="none" xmlns="http://www.w3.org/2000/svg">
  <path fill-rule="evenodd" clip-rule="evenodd" d="M2.1635 8.1044C2.1635 11.7106 2.51962 15.3168 2.74951 18.8915C2.89376 21.1228 3.1507 23.3407 3.23184 25.581C3.30397 27.4833 3.64656 29.2954 4.84563 30.6838C5.26485 31.1662 5.66604 31.644 6.0492 32.1308C5.83649 32.2218 5.61628 32.2942 5.39107 32.3472C3.4392 32.7574 3.02449 33.5327 3.06956 34.4343C3.13718 35.692 4.0793 36.8775 3.52034 38.1847C3.50854 38.2039 3.50477 38.227 3.50983 38.2489C3.51489 38.2708 3.52838 38.2899 3.54739 38.302C4.26863 38.7527 4.0793 39.2351 3.68262 39.7625C3.59046 39.9383 3.56332 40.1411 3.60599 40.335C3.66008 42.1381 4.54361 43.9412 3.44371 45.8029C3.31749 46.0193 3.50231 46.2537 3.56542 46.5061C3.71071 46.8756 3.81648 47.2593 3.88096 47.6511C3.9598 48.6698 3.9598 49.6931 3.88096 50.7118C3.64656 53.0604 3.27692 55.4135 3.04252 57.762C2.98392 58.3615 2.46102 58.9701 2.10039 59.5651C1.04107 59.6282 2.30324 60.5117 1.64962 63.2389C1.32547 64.3995 1.16464 65.5996 1.17179 66.8046C1.48734 72.1192 0.594798 77.8351 1.8119 82.9199C1.97418 83.5915 1.73076 84.5517 1.70822 85.3676C1.68117 86.4404 2.70894 87.6215 2.89376 88.5546C3.33218 91.2355 3.48329 93.9556 3.34454 96.6686C3.05009 97.4377 3.03098 98.2851 3.29044 99.0667C3.29044 100.523 3.50231 101.803 4.13791 102.853C4.40837 103.304 4.66982 103.755 4.94029 104.206C2.86221 105.598 2.17252 108.425 3.17775 111.743C2.67288 114.069 2.12293 115.678 2.04179 117.242C1.95614 118.955 2.41143 120.37 1.4107 121.917C0.883296 122.737 0.775109 124.378 0.716508 125.622C0.572259 128.575 0.820187 131.527 0.423503 134.444C0.198114 136.098 -0.171523 137.662 0.0899279 139.231C0.459565 141.458 0.815679 143.694 1.25293 145.875C1.76231 148.418 2.44749 149.053 4.17848 148.251C6.72086 147.074 9.21816 146.795 11.738 146.786C14.2579 146.777 16.4351 147.733 19.0947 146.493C19.2403 146.434 19.3975 146.41 19.5539 146.423C19.7104 146.435 19.8618 146.484 19.9962 146.565C21.4027 147.467 22.7009 148.819 24.5311 147.25C26.6091 148.86 28.0291 147.701 30.1522 148.526C32.609 149.486 35.0477 148.341 37.4593 148.418C40.6148 148.521 43.9956 147.029 47.0248 148.751C47.9715 149.292 49.1705 149.107 50.2704 149.13C52.1772 149.162 54.084 149.153 55.9998 149.053C56.8337 149.013 57.6902 148.657 58.5332 148.553C58.9524 148.503 59.3626 148.733 59.7863 148.769C61.7154 149.018 63.6567 149.161 65.6014 149.198C67.9905 149.153 70.5148 147.669 72.7597 149.225C73.1113 149.473 73.6973 149.135 74.1751 149.017C74.9775 148.814 75.7934 148.373 76.5733 148.373C80.4995 148.373 84.4844 147.232 88.4152 147.597C91.7329 147.904 95.2174 146.984 98.6208 146.781C101.929 146.579 105.229 146.552 108.538 146.525C109.949 146.525 111.387 147.259 112.726 146.687C115.651 145.434 118.338 146.543 121.178 146.087C123.301 145.749 125.379 146.515 127.489 146.43C131.005 146.29 134.651 145.582 137.965 146.565C141.278 147.548 144.843 145.664 148.22 146.615C150.577 147.273 153.314 146.254 155.856 146.552C158.61 146.872 161.468 146.277 164.245 146.745C166.67 147.156 169.244 146.673 171.732 146.768C173.269 146.827 174.753 147.367 176.29 147.44C182.655 147.742 189.123 147.228 195.358 148.58C196.56 148.898 197.793 149.086 199.036 149.139C203.219 149.139 207.416 148.945 211.608 148.873C215.241 148.81 218.861 148.909 222.499 148.729C224.681 148.621 226.907 147.971 229.094 147.827C231.28 147.683 233.344 148.832 235.598 148.553C236.626 148.427 237.694 148.242 238.659 148.485C241.319 149.157 241.621 148.999 242.554 145.1C242.881 143.94 243.044 142.74 243.036 141.534C242.721 136.22 243.938 130.504 242.743 125.419C242.581 124.747 242.824 123.787 242.847 122.971C242.878 121.899 243.032 120.718 242.847 119.784C242.365 117.296 242.396 114.668 242.482 112.031C242.776 111.262 242.795 110.415 242.536 109.633C242.536 108.181 242.319 106.901 241.688 105.851C241.418 105.4 241.152 104.949 240.886 104.499C242.964 103.106 243.649 100.279 242.649 96.9616C243.153 94.6356 243.703 93.0263 243.78 91.4666C243.866 89.7491 243.839 88.3337 244.835 86.7875C245.367 85.9671 245.47 84.3263 245.533 83.0867C245.673 80.1296 243.645 77.177 244.041 74.2604C244.267 72.6061 244.632 71.0419 244.375 69.4732C244.014 67.3005 243.663 65.1142 243.239 62.982C243.384 61.9427 243.121 60.8877 242.504 60.0384C242.428 59.9393 242.504 59.7905 242.554 59.6643C242.829 58.7627 243.311 57.8612 243.347 56.9957C243.471 54.7884 243.431 52.575 243.226 50.3738C243.073 49.2083 243.312 48.0252 243.906 47.011C244.037 46.6376 244.064 46.2354 243.983 45.848C243.983 45.0411 243.924 44.2387 243.933 43.4363C243.942 42.6339 244.253 41.8451 243.978 41.1193C243.703 40.3936 243.528 39.7354 244.118 38.9736C244.398 38.6085 244.515 37.9864 244.15 37.7655C243.46 37.3418 243.906 37.0127 244.037 36.589C244.285 35.7821 244.74 34.9031 243.672 34.3126C243.825 33.8846 243.941 33.4442 244.019 32.9963C244.023 32.9121 244.011 32.8278 243.983 32.7484C244.381 31.9871 244.578 31.1368 244.555 30.2781C244.506 29.5569 244.384 28.8401 244.357 28.1144C244.33 27.3886 244.357 26.5818 244.389 25.8199C244.389 25.1798 244.483 24.5397 244.488 23.8996C244.488 23.3812 244.217 22.8493 244.425 22.3535C244.993 21.0011 243.92 19.6488 245.074 18.2604C245.195 18.1162 245.074 17.9178 245.038 17.7465C245.038 17.449 245.006 17.156 244.993 16.845C245.007 16.8111 245.019 16.7765 245.029 16.7413C246.061 14.5595 246.318 12.5671 245.57 10.453C245.506 10.2681 245.439 10.0788 245.376 9.88948C245.425 9.62283 245.419 9.34891 245.359 9.08456C245.298 8.82021 245.184 8.57102 245.024 8.35233C244.972 8.00115 244.972 7.64419 245.024 7.293C245.583 4.25927 243.866 2.54632 241.981 0.725185C240.517 1.68365 238.758 2.08659 237.023 1.86114C236.624 1.80527 236.219 1.81746 235.824 1.8972C233.782 2.42461 233.683 2.05948 231.767 1.65378C230.295 1.35498 228.801 1.18753 227.3 1.15342C225.947 1.11736 224.595 1.32471 223.211 1.41036C222.857 1.44949 222.5 1.43123 222.152 1.35627C221.282 1.10834 220.466 0.571919 219.578 0.553888C217.022 0.517826 214.443 0.612488 211.869 0.792799C210.909 0.939351 209.965 1.18095 209.052 1.51405C208.128 1.23006 207.38 0.819843 206.586 0.797304C205.367 0.835967 204.151 0.945848 202.944 1.12638C202.397 1.23459 201.836 1.26344 201.281 1.21203C199.928 0.941559 198.576 0.562905 197.26 0.238345C196.872 0.923526 196.597 1.1399 196.169 1.90171C195.957 1.3112 195.813 1.24809 195.718 0.900988C195.538 0.202284 195.132 -0.216941 194.334 0.116634C192.869 0.725183 191.431 0.346534 189.989 0.53586C188.186 0.770264 186.383 -0.126783 184.579 0.937051C184.276 1.0613 183.936 1.0613 183.633 0.937051C181.672 0.188761 179.337 1.44642 177.412 0.409636C177.151 0.265387 176.637 0.544873 176.24 0.589951C174.487 0.862914 172.72 1.04347 170.948 1.13088C169.1 1.13088 167.288 0.725183 165.439 0.680105C163.695 0.680105 161.919 0.265394 160.152 1.21203C159.881 1.35627 159.318 1.47798 159.25 1.36078C158.322 0.080569 156.812 0.909999 155.676 0.909999C153.598 0.959584 151.619 0.125648 149.599 0.594456C147.345 1.11736 145.29 0.662077 143.144 0.711663C140.633 0.765756 138.122 0.810833 135.621 0.774771C131.69 0.71617 127.745 0.720677 123.846 0.450211C120.835 0.238346 117.815 0.900985 114.754 0.630519C111.774 0.364561 108.484 0.107616 105.346 1.45995C105.121 1.5115 104.887 1.5115 104.661 1.45995C103.034 1.27513 101.425 0.887463 99.7838 0.941556C95.6637 1.0813 91.5255 1.27062 87.4009 1.73492C85.3338 2.01016 83.2336 1.89858 81.2073 1.40586C80.5581 1.23456 79.7738 1.40586 79.0525 1.44192C77.547 1.53207 76.0414 1.66731 74.5448 1.73943C73.0482 1.81156 71.6192 1.58617 70.2308 1.92876C68.8424 2.27135 67.5803 2.52829 66.2415 2.01441C65.5968 1.76648 64.4384 1.71238 63.9876 2.10005C63.1086 2.83031 62.5586 2.4156 61.7833 2.32995C60.1334 2.14964 58.3529 1.69886 57.0591 3.37124C54.8052 2.7086 52.5153 2.2443 50.0721 2.46969C48.7197 2.5914 47.3674 2.78523 46.0151 2.88891C44.5816 2.9971 43.1527 3.03316 41.7237 3.08725C40.5382 3.13233 39.3526 3.12332 38.1581 3.18642C37.1889 3.23601 36.1611 3.56057 35.2596 3.40731C32.7803 2.98358 30.1027 4.18265 27.7045 3.17741C27.4566 3.07373 27.0689 3.23601 26.7444 3.26306C26.1133 3.32166 25.4867 3.36674 24.8601 3.41632C23.4131 3.52451 16.5253 3.30814 15.0783 3.38477C14.53 3.38482 13.9821 3.35322 13.4374 3.29011C12.324 3.23151 11.2196 3.12783 10.1062 3.14135C9.15505 3.14135 8.19039 3.37575 7.24827 3.36674C3.28143 3.33969 2.19055 4.19166 2.17703 8.05482" fill="#C60633" />
  <path d="M125.038 32.8208H123.983C123.983 32.8208 120.624 35.5254 117.672 44.5725C117.672 44.5725 112.686 60.1063 112.533 60.6653C112.123 59.1011 105.321 39.7131 105.321 39.7131C103.77 35.3361 99.7489 32.8208 94.281 32.8208H92.284L92.2209 33.1679C90.8686 40.7004 89.1016 58.1905 89.1016 67.1024C89.1016 70.5102 91.1796 72.71 94.3937 72.71H97.5491V72.2863C97.5491 66.0971 98.0946 52.1275 99.0051 45.4831C99.51 46.7813 100.101 48.3455 100.574 49.7384L106.136 66.2098C107.547 70.4021 109.9 72.71 112.767 72.71H115.233C116.937 70.5057 117.302 68.8153 118.434 65.466L123.87 48.7062C124.231 47.5747 124.663 46.5244 125.065 45.5507C125.651 50.7527 126.327 62.5721 126.327 67.0843C126.327 70.5959 128.346 72.692 131.736 72.692H135.103V72.2683C135.103 64.0957 133.936 47.169 133.233 41.2683C132.597 35.8094 129.694 32.8027 125.056 32.8027" fill="white" />
  <path d="M156.687 32.1348C145.151 32.1348 137.695 40.4651 137.695 53.3619C137.695 64.7845 145.494 73.3944 155.839 73.3944C167.374 73.3944 174.83 65.064 174.83 52.1673C174.83 39.0181 165.702 32.1348 156.687 32.1348ZM156.574 65.7627C149.812 65.7627 146.526 61.3181 146.526 52.1673C146.526 44.7024 150.222 39.8791 155.952 39.8791C162.434 39.8791 166 44.6258 166 53.2492C166 61.3181 162.655 65.7627 156.574 65.7627Z" fill="white" />
  <path d="M205.133 33.8479C201.197 32.9415 197.176 32.4534 193.138 32.3919C191.623 32.3483 190.106 32.4236 188.603 32.6173C182.887 33.2529 177.572 37.2693 177.572 44.1301C177.572 49.1202 180.593 53.4387 184.785 54.6693C182.955 55.8684 181.553 58.0141 180.795 59.8081L177.681 67.1062C177.161 68.3486 176.491 69.522 175.684 70.5997C175.548 70.7846 175.431 70.9423 175.341 71.0866L175.156 71.3661L175.382 71.605C176.414 72.7094 177.243 72.9979 179.439 72.9979C182.4 72.9979 184.496 71.7041 185.488 69.2564L188.332 62.1973C190 58.1403 191.447 57.8878 193.453 57.5497C194.563 57.3841 195.681 57.2773 196.803 57.2297V72.7184H199.715C203.276 72.7184 205.403 70.5997 205.403 67.0521V33.9516L205.133 33.8479ZM196.803 49.9902C195.105 50.2245 193.39 50.315 191.677 50.2607C189.184 50.2607 186.268 48.985 186.268 45.3833C186.268 41.4886 188.409 40.0506 191.619 40.0506H192.845C194.169 40.0742 195.491 40.1781 196.803 40.3616V49.9902Z" fill="white" />
  <path d="M64.0824 103.763C63.8525 103.944 63.1538 104.476 63.0547 104.561C60.9229 106.431 58.1867 107.467 55.3509 107.478H55.3283C49.919 107.478 47.4443 103.002 45.7223 98.6335C45.1469 97.1172 44.6946 95.557 44.37 93.968C42.5047 85.1412 42.1723 76.0592 43.3873 67.1197C44.406 59.2762 45.9387 51.0179 50.2526 43.7694C51.8213 41.1369 54.0572 38.1572 57.5777 38.599C60.9225 39.0047 62.3064 42.2052 62.8293 44.982C63.7939 50.1434 63.4108 57.3964 61.1028 60.8313C60.2644 62.08 61.495 63.9868 63.7173 64.8883C65.4573 65.5915 67.63 65.6411 70.0282 64.3068C71.1354 63.7006 72.0996 62.8637 72.8555 61.8527C73.6114 60.8417 74.1415 59.6802 74.4097 58.4467C75.3463 55.0124 75.6998 51.4453 75.4555 47.894C74.9056 39.3834 70.817 32.784 64.5242 30.2416C58.921 27.9877 52.3217 29.2319 46.421 33.6855C40.8494 37.8868 36.7022 44.1526 33.7406 52.8346C30.3147 62.8508 29.0526 73.9489 29.918 86.7781C30.5311 96.0686 32.8075 103.295 36.8645 108.866C38.5906 111.299 40.8741 113.284 43.5239 114.654C46.1738 116.024 49.1132 116.739 52.0963 116.741H52.6327C57.8431 116.545 62.7946 114.42 66.5256 110.777C67.1855 110.191 67.8102 109.567 68.3964 108.907L64.0824 103.763Z" fill="white" />
  <path d="M212.376 105.472C211.024 104.94 208.919 106.861 208.549 107.181C207.702 107.916 206.656 108.493 206.151 108.452C204.461 108.308 204.348 105.558 204.307 103.908C204.199 99.752 204.443 95.4516 204.686 91.2864L204.74 90.2992C204.911 87.2835 204.56 85.6787 203.595 85.1062C202.797 84.6555 201.603 84.8718 199.831 85.841C198.86 86.4095 197.921 87.031 197.018 87.7027C196.802 87.856 196.698 87.9236 196.491 88.0814C196.283 88.2391 196.162 88.2752 196.063 88.2211C196.032 88.1997 196.007 88.1705 195.991 88.1364C195.975 88.1023 195.969 88.0647 195.972 88.0273C195.972 87.9597 195.972 88.0633 195.972 88.0002C195.824 82.3565 194.39 78.9486 191.397 77.4025C189.698 76.5235 187.241 76.3251 184.726 77.1275C180.114 78.597 176.918 82.5774 175.223 88.9514C174.209 92.783 174.984 96.1863 176.544 98.3411C177.1 99.1133 177.817 99.7553 178.646 100.222C179.475 100.689 180.396 100.97 181.345 101.046C182.535 101.15 183.734 101.052 184.892 100.757C185.376 100.642 185.851 100.491 186.312 100.306C186.372 100.282 186.437 100.275 186.5 100.286C186.564 100.298 186.622 100.327 186.67 100.37C186.717 100.414 186.751 100.47 186.767 100.532C186.784 100.594 186.782 100.66 186.763 100.721C185.411 105.026 183.878 107.785 181.624 109.547C180.524 110.404 179.226 110.76 178.365 110.449C177.27 110.066 176.508 108.763 176.21 106.775C176.102 106.063 176.044 102.939 175.976 102.141C175.805 99.9774 175.074 98.9857 174.533 98.8009C173.609 98.4808 172.194 99.2111 171.405 100.077C169.537 102.236 168.544 105.016 168.619 107.87C168.609 110.193 169.52 112.426 171.153 114.078C172.861 115.643 175.088 116.521 177.405 116.543C184.054 116.543 189.819 110.638 193.182 101.645C193.552 100.667 194.084 98.7873 194.417 98.7873C194.751 98.7873 194.665 100.14 194.719 101.136C194.927 104.859 195.053 105.454 195.621 107.785C196.82 112.631 199.971 115.709 203.924 115.317C208.274 114.894 211.389 110.643 212.66 107.695C213.048 106.793 213.007 105.707 212.376 105.441M183.896 94.3201C183.215 93.5899 182.945 92.2736 183.089 90.4029C183.265 88.149 184.126 86.0754 185.28 85.1153C185.702 84.774 186.23 84.5907 186.772 84.5969C187.967 84.5969 188.53 86.6434 188.62 88.1715C188.647 88.6854 188.647 89.1362 188.62 89.6365C188.657 91.0938 188.314 92.5354 187.624 93.8198C187.438 94.1668 187.163 94.4589 186.829 94.6669C186.494 94.8749 186.111 94.9916 185.717 95.0053C185.379 95.0276 185.04 94.9781 184.722 94.86C184.404 94.7419 184.115 94.5579 183.874 94.3201" fill="white" />
  <path d="M161.837 88.5873C159.538 87.7399 155.86 87.5956 153.304 90.7195C152.853 91.2739 152.136 92.6894 152.208 93.5233C152.236 93.7977 152.355 94.0548 152.546 94.2534C152.738 94.4521 152.99 94.5807 153.263 94.6187C153.891 94.6312 154.504 94.4346 155.008 94.0598C155.797 93.4783 156.518 93.2889 157.041 93.5233C157.667 93.8073 158.019 94.7044 158.028 96.0477C158.064 100.105 157.902 103.819 157.208 107.132C156.981 108.376 156.424 109.537 155.594 110.491C155.203 110.897 154.687 111.159 154.129 111.234C153.593 111.149 153.11 110.864 152.776 110.436C152.132 109.47 151.755 108.35 151.686 107.191C151.302 102.94 151.162 98.6697 151.266 94.4023C151.266 92.4956 151.402 90.5392 151.514 88.6504C151.65 86.3965 151.789 84.0525 151.758 81.7761C151.731 79.6214 151.217 78.269 150.225 77.7687C149.414 77.3585 148.35 77.5523 147.07 78.3457C144.491 79.9369 142.959 82.885 141.994 85.9052C139.492 93.7668 139.244 99.131 135.854 105.374C134.579 107.732 132.942 108.931 132.194 108.931H132.162C131.324 108.904 130.332 107.858 129.823 105.902C129.569 104.716 129.438 103.508 129.431 102.295C129.354 100.199 129.309 98.0627 129.264 95.9846C129.196 92.8291 129.129 89.5926 128.948 86.4191C128.7 82.0375 128.209 79.9865 127.037 79.5988C125.211 78.9948 123.016 80.0496 121.461 81.6363C120.136 82.9887 118.887 85.4454 118.224 87.4514C117.21 90.5392 116.3 93.7307 115.421 96.8185C114.798 98.9958 114.154 101.245 113.478 103.44C113.243 104.216 112.599 106.988 111.643 107.277C111.6 107.289 111.555 107.291 111.511 107.282C111.467 107.273 111.426 107.255 111.391 107.227C110.489 106.519 110.381 103.224 110.3 102.237C109.763 95.7817 109.421 89.4348 109.011 83.2186C108.866 81.0053 108.357 79.7025 107.446 79.2427C106.734 78.8776 105.805 79.0218 104.606 79.6935C101.685 81.2892 99.6975 84.3635 98.5209 89.1012C97.1145 94.7449 95.3925 100.429 93.8689 105.473C93.6508 106.302 93.3782 107.115 93.053 107.908C92.9088 108.241 92.3994 109.26 91.9621 109.26C91.5249 109.26 91.4122 108.624 91.4122 108.624C91.3761 107.948 91.3401 107.272 91.2995 106.6C91.2138 104.996 91.1237 103.341 91.0606 101.705C90.9839 99.7531 90.6594 98.7749 89.591 98.288C89.1403 98.0717 88.2387 97.8373 87.2695 99.1535C86.7647 99.8477 86.2688 101.011 84.7407 104.392C83.0458 108.138 80.1337 110.423 77.2488 110.662C74.6523 110.878 72.9258 108.259 72.0423 106.235C71.9978 106.128 71.9895 106.009 72.0188 105.897C72.0481 105.785 72.1134 105.685 72.2046 105.613C74.481 103.785 76.5667 101.731 78.4298 99.4826C78.5921 99.2933 78.7589 99.0859 78.9302 98.865L78.9798 98.8109C79.4756 98.1663 80.0256 97.391 80.7062 96.3542C83.2802 92.4324 83.776 86.7436 82.1442 82.9616C81.4721 81.2707 80.1768 79.902 78.5254 79.138C76.874 78.3739 74.9923 78.2726 73.2684 78.8551C67.2911 80.7348 62.5489 88.5648 61.999 97.4631C61.7697 100.597 62.0948 103.746 62.9591 106.767C63.446 108.49 64.2351 110.112 65.2896 111.559C67.6968 114.714 69.3917 115.53 70.9289 115.999C75.5043 117.387 79.9084 115.913 84.0014 111.609C84.3891 111.158 84.903 110.518 85.1869 110.729C85.6377 111.045 85.7685 111.956 85.9443 112.456C86.4536 113.903 87.2695 115.161 88.419 115.801C88.8372 116.035 89.2985 116.181 89.7751 116.232C90.2516 116.282 90.7334 116.235 91.1913 116.094C92.485 115.675 94.5271 114.43 96.6953 110.833C97.9627 108.75 99.0515 106.564 99.9499 104.297C100.437 103.152 100.851 101.89 101.194 101.84C101.537 101.791 101.744 103.869 101.888 104.576C102.117 105.926 102.472 107.251 102.948 108.534C104.413 112.564 107.081 114.687 109.38 114.638C111.679 114.588 114.339 112.127 116.741 107.313C117.58 105.627 118.242 104.076 119.121 102.057C119.423 101.362 119.505 100.866 119.811 100.866C120.118 100.866 120.321 101.908 120.51 102.868C120.884 104.761 121.132 107.533 121.903 109.63C123.178 113.105 125.725 115.197 128.141 115.517C130.395 115.814 132.766 114.615 135.02 112.046C136.158 110.784 137.137 109.388 137.937 107.89C138.82 106.203 139.604 104.466 140.285 102.688C140.565 101.939 140.763 101.493 141.029 101.547C141.295 101.601 141.3 102.521 141.439 103.418C141.701 105.321 142.21 107.182 142.954 108.953C144.681 113.191 149.107 116.693 153.498 116.693C154.257 116.691 155.013 116.6 155.752 116.423C160.994 115.17 164.515 111.104 166.219 104.333C168.098 96.8591 166.219 90.2417 161.792 88.6053M73.0295 89.0561C73.3841 88.3955 73.9651 87.8849 74.6658 87.6182C74.9326 87.5262 75.2242 87.5377 75.483 87.6504C75.7417 87.763 75.9488 87.9687 76.0632 88.2267C76.514 89.0742 76.1939 90.6023 76.0407 91.3821C75.3871 94.5962 73.931 97.0664 71.2579 99.7982C71.2138 99.8441 71.1574 99.8765 71.0954 99.8914C71.0334 99.9063 70.9684 99.9031 70.9082 99.8822C70.848 99.8613 70.795 99.8237 70.7555 99.7736C70.716 99.7236 70.6917 99.6632 70.6854 99.5998C70.415 96.6472 71.3346 91.6932 73.0295 89.0787" fill="white" />
</svg>