<svg width="406" height="227" viewBox="0 0 406 227" fill="none" xmlns="http://www.w3.org/2000/svg">
  <path opacity="0.4" d="M405.083 128.676C404.634 127.101 402.271 126.679 401.484 128.198C399.347 132.219 396.309 135.678 392.738 138.434C394.763 135.875 396.394 133.006 397.406 129.885C399.768 122.77 396.788 115.711 395.634 108.653C394.791 103.506 394.706 98.3602 395.016 93.242C395.775 81.0652 398.897 68.9165 399.881 56.7397C400.528 54.2649 401.118 51.7902 401.54 49.2592C402.721 42.2287 402.918 34.8327 400.134 28.1396C398.053 23.1058 394.285 19.0844 390.01 15.8222C388.407 14.1349 386.579 12.5882 384.442 11.2946C382.164 9.8885 379.746 8.98859 377.299 8.36991C369.369 4.7703 360.679 2.43618 352.242 1.53628C315.74 -2.37267 278.9 3.25172 242.567 6.40137C237.786 6.8232 233.005 7.18879 228.225 7.49813C216.751 7.24503 205.277 7.35752 193.831 7.80747C191.666 7.89184 189.501 8.03245 187.363 8.17306C187.026 8.17306 186.688 8.17306 186.351 8.14494C166.159 7.24503 145.968 5.72645 125.776 4.71406C107.806 3.81415 89.8645 3.22359 71.9508 1.84562C55.8932 0.608252 39.3575 -0.57287 23.4686 2.68928C19.7846 3.44857 16.185 4.48908 12.6979 5.86706C10.2231 6.85133 11.2918 10.929 13.8228 9.91662C28.3899 4.1235 44.7007 4.37659 60.1115 5.24837C67.9856 5.6702 75.8598 6.40137 83.7339 6.96381C92.1424 7.5825 100.579 7.77935 109.016 8.14494C126.311 8.87611 143.577 9.86037 160.844 10.8728C149.596 12.2507 138.347 13.6287 126.957 14.1349C112.053 14.8098 97.1762 13.01 82.4122 11.0415C57.3555 7.72311 2.06778 -3.89126 2.06778 36.8574C2.06778 40.4289 2.40524 43.8317 2.85519 47.1501C1.89904 51.1715 1.25224 55.2773 0.97102 59.4675C0.127362 71.5881 1.64595 83.7649 3.83946 95.6886C3.44575 100.497 3.02392 105.278 2.63022 110.087C1.70219 121.448 3.61448 135.059 12.9228 142.737C15.0882 144.536 17.5067 145.858 20.0939 146.871C22.3999 149.233 25.0715 151.229 27.9962 152.439C35.1111 155.448 43.0415 156.713 50.6906 157.107C66.467 157.951 82.0466 154.745 97.5137 151.989C97.7949 151.989 98.0761 151.989 98.3292 151.989C97.345 155.195 96.6419 158.626 96.9794 161.831C97.2606 164.503 101.451 164.531 101.17 161.831C100.832 158.626 101.648 155.223 102.688 152.101C105.669 152.157 108.65 152.27 111.631 152.298C111.293 152.411 110.956 152.495 110.619 152.607C106.653 154.126 105.81 157.219 104.404 159.638C102.885 162.309 103.729 166.5 104.657 169.003C105.332 170.83 105.135 175.33 104.994 177.186C104.825 179.717 104.179 181.629 103.588 183.513C103.672 182.557 103.813 181.601 104.01 180.645C104.516 178.17 100.72 177.102 100.185 179.604C98.2449 189.138 100.916 199.29 109.269 204.914C113.262 207.586 118.183 208.823 122.964 208.711C126.339 208.626 129.629 207.839 132.919 207.08C136.35 206.292 139.781 205.73 143.296 205.449C150.552 204.858 157.863 204.914 165.147 204.689C172.515 204.464 179.855 204.183 187.195 203.733C201.874 202.889 216.441 201.174 231.037 199.599C231.908 199.515 232.78 199.43 233.652 199.346C238.18 199.121 242.735 198.84 247.263 198.531C252.297 198.193 257.275 197.687 262.252 197.153C268.158 196.899 274.063 196.759 279.997 196.871C281.234 196.871 281.853 195.971 281.881 195.015C285.846 194.593 289.84 194.228 293.833 193.947C304.238 193.187 314.643 193.328 324.964 193.525C337.872 193.778 362.338 195.1 374.009 189.869C377.299 188.632 380.083 186.494 380.786 182.585C381.264 179.97 380.87 177.383 380.674 174.768C380.589 173.643 380.449 172.349 380.702 171.252C380.983 170.071 381.967 169.593 382.98 169.059C392.232 164.222 400.331 157.051 404.043 147.039C406.236 141.162 406.658 134.637 404.943 128.591L405.083 128.676ZM402.103 134.581C402.159 135.537 402.159 136.465 402.103 137.393C398.137 144.593 390.91 149.261 378.227 148.586C387.704 147.292 396.422 142.202 402.103 134.581ZM331.404 4.62969C339.447 4.7703 347.771 4.85467 355.729 6.23264C357.951 6.62635 360.145 7.13255 362.31 7.69498C359.188 7.94808 356.095 8.31367 353.058 8.56676C341.668 9.55103 330.307 10.7884 318.89 11.0977C300.442 11.5758 281.966 10.8446 263.574 9.32606C262.224 9.21357 260.846 9.15733 259.496 9.04484C283.428 6.71072 307.332 4.20786 331.404 4.65781V4.62969ZM4.93622 65.0638C4.93622 64.8669 4.93622 64.6701 4.93622 64.4732C4.93622 64.6419 4.93622 64.8107 4.96434 65.0075C5.0487 67.201 5.0487 69.3664 5.0487 71.5599C4.96434 69.3946 4.87997 67.2292 4.90809 65.0638H4.93622ZM57.4118 153.085C49.9313 153.198 42.4509 152.523 35.2517 150.498C34.2955 150.217 33.3394 149.936 32.4114 149.598C36.5734 150.02 40.7917 150.133 44.7288 150.301C55.0495 150.779 65.3984 151.145 75.7192 151.483C69.6448 152.354 63.5705 152.973 57.4118 153.057V153.085Z" fill="white" />
  <path d="M288.931 86.5197C346.441 85.8447 379.034 100.834 394.276 110.789C395.148 96.7842 399.141 82.8638 399.451 68.8028C399.76 54.2919 397.229 37.0531 383.702 28.8134C374.197 23.0203 362.78 25.1857 352.29 26.0856C340.901 27.0698 329.539 28.3072 318.122 28.6166C299.674 29.0946 281.198 28.3635 262.806 26.8449C239.634 24.9326 216.32 24.4264 193.092 25.3263C170.622 26.1981 148.603 30.6695 126.161 31.6537C111.257 32.3287 96.3803 30.5288 81.6163 28.5603C56.6159 25.2138 1.32812 13.5994 1.32812 54.3763C1.32812 63.7127 3.63413 71.7556 4.16844 80.9234C26.891 93.972 65.3056 112.307 104.986 114.529C167.332 118.044 203.244 87.5321 288.959 86.5197H288.931Z" fill="white" />
  <path d="M288.944 86.5201C203.228 87.5325 167.316 118.017 104.97 114.53C65.2897 112.308 26.8751 93.9724 4.15261 80.9238C4.18073 81.4581 4.23697 81.9643 4.23697 82.4987C4.71504 97.572 3.11209 112.617 1.87473 127.606C0.946703 138.968 2.859 152.579 12.1674 160.256C20.8289 167.399 33.3151 167.343 43.9452 167.821C67.202 168.861 90.487 169.592 113.744 169.93C159.301 170.633 205.421 169.93 250.557 167.624C268.949 166.696 287.369 165.88 305.817 165.655C324.012 165.43 342.01 166.921 360.176 167.09C362.876 167.09 365.52 167.174 368.107 167.118C373.647 166.977 378.99 166.218 384.052 163.04C389.817 159.412 394.485 153.9 396.623 147.404C398.985 140.261 396.004 133.231 394.851 126.172C394.007 121.026 393.923 115.879 394.232 110.761C378.99 100.806 346.397 85.817 288.887 86.492L288.944 86.5201Z" fill="#6D2B88" />
  <path d="M13.0361 27.4084C27.6033 21.6153 43.914 21.8684 59.3249 22.7402C67.199 23.162 75.0731 23.8932 82.9473 24.4556C91.3558 25.0743 99.7923 25.2712 108.229 25.6367C128.083 26.4804 147.937 27.6334 167.791 28.8145C177.381 29.377 186.999 30.0238 196.616 30.1363C205.728 30.2206 214.839 29.9675 223.923 29.4332C259.553 27.3522 294.931 21.5028 330.674 22.1496C338.716 22.2902 347.041 22.3746 354.999 23.7526C361.102 24.8212 367.092 26.5929 372.8 28.927C384.133 33.539 396.029 41.1038 397.294 54.3774C398.026 61.8016 396.282 69.2539 394.257 76.3406C392.233 83.4274 389.533 90.7953 387.536 98.1351C385.68 104.941 385.09 111.606 385.286 118.636C385.455 124.71 386.214 131.657 383.374 137.281C381.884 140.206 379.578 142.315 376.765 143.974C374.431 145.324 376.54 148.98 378.875 147.602C384.893 144.086 388.324 138.603 389.252 131.741C390.18 124.879 389.167 117.989 389.505 111.156C389.87 103.731 392.289 96.5884 394.539 89.5861C396.957 82.1056 399.516 74.6252 400.81 66.8354C401.991 59.8049 402.188 52.4088 399.404 45.7158C397.041 40.0071 392.514 35.62 387.536 32.1329C377.187 24.8775 364.026 20.4623 351.512 19.1124C315.01 15.2035 278.17 20.8279 241.836 23.9775C223.135 25.6086 204.378 26.5648 185.592 25.7211C165.401 24.8212 145.209 23.3026 125.018 22.2902C107.048 21.3903 89.106 20.7998 71.1923 19.4218C55.1347 18.1844 38.599 17.0033 22.7101 20.2654C19.0261 21.0247 15.4265 22.0653 11.9394 23.4432C9.46463 24.4275 10.5333 28.5052 13.0642 27.4928L13.0361 27.4084Z" fill="#231F20" />
  <path d="M79.3975 94.9582C79.8193 96.6455 80.4661 98.361 81.3098 99.9639C82.1534 101.595 83.1377 103.085 84.2063 103.985C85.4156 104.913 86.8498 105.701 88.509 106.319C90.1682 106.938 91.9961 107.332 93.9646 107.472C94.8083 107.529 95.905 107.585 97.283 107.585C99.7577 107.585 102.008 107.248 103.807 106.629C105.916 105.926 107.013 104.717 107.013 102.832V102.467C107.013 102.467 106.844 102.354 106.76 102.298C105.663 101.567 104.567 101.201 103.526 101.173C102.711 101.173 101.333 101.511 99.4203 102.298C97.7892 102.973 96.3831 103.31 95.2864 103.254C92.6148 103.085 90.4775 102.073 88.9308 100.301C87.2997 98.5578 86.1749 96.4487 85.5843 94.0583C84.7969 91.443 84.3469 88.7995 84.2907 86.2123C84.0938 83.0626 83.9813 80.5598 83.9813 78.7319V77.0445C83.9813 76.8196 84.0376 76.229 84.4594 74.8229C84.7406 73.8386 84.9094 72.9387 84.9094 72.1232C84.8812 71.1389 84.8531 70.6327 84.7969 69.6485C84.7125 68.6361 84.6844 68.158 84.6 67.1456C84.6 65.7958 84.6563 65.2333 84.6844 65.0083V64.8677C84.6844 64.249 84.7688 63.5179 84.8812 62.7586C84.9937 62.0274 85.1906 61.4369 85.4437 60.9588C86.0624 59.6933 86.9623 58.7653 88.059 58.2591C89.6057 57.6404 91.4899 57.3592 93.7397 57.4154V57.556C94.4146 57.5841 94.7239 57.6123 95.3988 57.6404C95.7363 57.9497 96.2425 58.2028 97.0018 58.3716C98.8297 58.7934 100.433 58.8496 101.558 58.2872C102.486 57.8091 102.711 57.0498 102.711 56.4874C102.711 55.1094 101.839 53.9845 100.095 53.1128C98.5485 52.3253 96.8049 51.9035 94.977 51.8473C90.1963 51.6785 86.1749 52.4378 83.0533 54.0689C79.7912 55.7843 78.132 58.1747 78.132 61.2962C78.132 62.0555 78.2163 62.8148 78.4132 63.546C77.9632 65.149 77.7101 67.3425 77.7101 70.0703C77.7101 71.392 77.682 72.6856 77.5977 74.0074V78.3944C77.5977 81.0379 77.6258 82.8377 77.7101 83.9344C77.9914 88.4058 78.5538 92.1179 79.3693 94.9301L79.3975 94.9582Z" fill="#C10230" />
  <path d="M109.797 64.7251C109.797 78.2517 109.797 91.8065 109.797 105.333C109.797 106.064 110.19 106.936 111.962 107.189C112.946 107.33 114.128 107.414 115.449 107.358C116.715 107.302 117.362 107.302 118.655 107.217C120.033 107.133 120.708 107.077 122.086 106.964C123.155 106.824 124.251 106.571 125.376 106.205C126.586 105.811 127.401 105.361 127.879 104.799C127.935 104.743 127.964 104.714 128.02 104.658V104.265C128.02 102.943 126.051 102.296 121.636 102.577C119.555 102.774 118.515 102.858 116.405 103.027C116.405 95.3218 116.405 91.3284 116.405 83.0887C116.687 82.9481 117.193 82.8356 118.036 82.8356C118.571 82.8356 118.824 82.8356 119.358 82.8356C119.864 82.8356 120.118 82.8637 120.624 82.8919C121.495 82.8919 122.227 82.5825 122.817 82.0763C123.464 81.4858 123.801 80.8108 123.801 80.0234C123.801 79.236 123.408 78.6173 122.592 78.1111C121.889 77.6893 121.13 77.4643 120.286 77.4643C119.358 77.4643 118.205 77.6331 116.827 77.9143C116.49 77.9705 116.321 77.9986 116.012 78.0268C116.068 76.7613 116.096 76.1145 116.18 74.8209C116.377 72.9086 116.49 71.5025 116.49 70.4901C116.405 68.859 116.377 68.0435 116.293 66.4124C116.209 65.5687 116.18 65.175 116.096 64.3314C115.871 62.2785 115.73 60.4506 115.702 58.9038C115.843 58.9038 116.04 58.9038 116.321 58.9038C116.855 58.9038 117.305 58.932 117.755 58.9882C118.318 58.9882 118.627 58.9882 119.189 58.9882C120.483 58.9882 124.448 58.9882 124.448 56.0354C124.448 54.5731 123.014 53.8981 122.564 53.6732C121.495 53.167 120.342 52.9139 119.218 52.8857C118.121 52.8857 116.799 52.9982 115.365 53.167C113.818 53.3638 112.553 53.4482 111.625 53.4201C111.568 53.4201 111.54 53.4201 111.484 53.4201C111.428 53.4482 111.4 53.4763 111.372 53.5044C110.781 53.9263 109.909 54.8543 108.7 56.2885C108.644 56.3729 108.587 56.401 108.531 56.4854V57.0197C108.531 58.1164 108.784 59.4663 109.262 61.0692C109.656 62.7003 109.853 63.9095 109.853 64.697L109.797 64.7251Z" fill="#C10230" />
  <path d="M132.211 101.649C132.211 103.056 132.605 104.04 133.364 104.63C134.123 105.221 135.389 105.39 137.273 105.165C137.329 105.165 137.357 105.165 137.413 105.165C137.47 105.137 137.498 105.108 137.554 105.08C138.735 104.209 139.326 103.28 139.326 102.212C139.241 98.8935 139.213 97.178 139.129 93.719C139.045 92.0036 139.016 91.1318 138.932 89.3601C138.595 82.8639 138.426 78.0832 138.426 75.6085C138.482 73.3025 138.51 72.1495 138.566 69.7872C139.438 71.9807 139.86 73.0494 140.732 75.1866C142.279 79.0675 143.432 82.2171 144.163 84.72C144.866 87.1947 145.231 89.4726 145.231 91.5817C145.231 96.9249 147.537 97.5998 149.45 97.2624C151.053 96.9812 152.262 96.2219 153.077 94.9283C153.64 93.8596 154.034 92.791 154.174 91.8067C154.287 91.3286 154.343 91.0755 154.484 90.5975C154.484 90.4287 154.484 90.3163 154.484 90.1475C155.102 87.6728 156.143 84.3544 157.633 80.333C158.505 77.9988 159.236 75.9178 159.827 74.1461V74.2305C159.827 79.3768 159.883 83.8763 160.024 87.6728C160.024 89.557 160.052 90.8224 160.136 91.5536C160.164 95.1814 160.192 96.9812 160.249 100.412C160.249 101.284 160.502 101.931 161.036 102.324C161.542 102.69 162.217 102.802 163.033 102.634C164.186 102.409 165.226 101.818 166.154 100.862C167.082 99.8777 167.56 98.8372 167.56 97.7967C167.56 94.7595 167.504 92.0879 167.363 90.035C167.223 85.5074 166.97 80.6985 166.632 75.8053C165.985 65.7939 165.704 57.5261 165.704 52.0142C165.704 51.3674 165.395 50.833 164.748 50.3831C164.186 49.9894 163.539 49.8206 162.836 49.905C161.823 49.9894 160.923 50.2706 160.164 50.7205C159.32 51.2267 158.814 51.9017 158.646 52.7453C158.646 52.9703 158.646 53.0828 158.646 53.3078C158.449 55.6419 157.999 58.6509 157.239 62.1381C156.593 65.119 155.861 67.9031 155.13 70.434C154.427 72.9369 153.499 75.9178 152.403 79.2362C151.615 81.5141 151.221 82.6671 150.434 84.9168C150.35 85.1981 150.293 85.3106 150.209 85.5918C149.787 84.2982 149.562 83.6514 149.14 82.3296C148.803 81.0641 148.212 79.2081 147.397 76.7615C147.256 76.0022 146.947 75.0179 146.553 73.9212C143.741 65.9345 141.547 59.4102 139.804 56.3168C139.073 55.1357 138.454 54.2639 137.863 53.7015C137.245 53.1109 136.598 52.7735 135.951 52.7172C135.923 52.7172 135.895 52.7172 135.839 52.7172C134.545 53.3078 133.898 53.589 132.633 54.1514C132.633 54.3483 132.633 54.4326 132.633 54.6295C132.492 58.9322 132.436 62.1381 132.436 64.2753C132.605 75.6085 132.689 80.9798 132.858 91.1599C132.858 92.3129 132.745 94.0846 132.548 96.4187C132.464 98.556 132.436 99.5965 132.352 101.678L132.211 101.649Z" fill="#C10230" />
  <path d="M190.855 94.7875C192.064 94.197 192.88 93.5783 193.358 92.9034C193.414 92.819 193.442 92.7909 193.498 92.7346V92.2847C193.498 90.8505 191.53 90.6817 187.115 91.6941C185.034 92.2284 183.993 92.5097 181.884 93.044V75.2428C182.165 75.074 182.671 74.8772 183.515 74.7085C184.049 74.596 184.302 74.5397 184.837 74.4554C185.343 74.371 185.596 74.3429 186.102 74.2585C186.974 74.0898 187.705 73.6961 188.296 73.1336C188.943 72.5149 189.28 71.8681 189.28 71.1932C189.28 70.5183 188.886 70.0402 188.071 69.759C187.368 69.5059 186.608 69.4497 185.765 69.6184C184.837 69.7871 183.684 70.1246 182.306 70.6308C181.968 70.7433 181.8 70.7995 181.49 70.8839C181.546 69.759 181.575 69.1966 181.659 68.0717C181.856 66.3844 181.968 65.147 181.968 64.2752C181.884 62.8972 181.856 62.1942 181.771 60.8162C181.687 60.1132 181.659 59.7757 181.575 59.0727C181.35 57.3572 181.209 55.8105 181.181 54.4888C181.321 54.4888 181.518 54.4325 181.8 54.4044C182.334 54.3482 182.784 54.2919 183.234 54.2919C183.796 54.2076 184.106 54.1794 184.668 54.1232C185.962 53.9545 189.927 53.4483 189.927 51.0579C189.927 49.8768 188.493 49.4831 188.043 49.3425C186.974 49.0331 185.821 48.9488 184.696 49.0612C183.599 49.1737 182.278 49.3987 180.843 49.708C179.297 50.0455 178.031 50.2424 177.103 50.3549C177.047 50.3549 177.019 50.3549 176.963 50.3549C176.906 50.383 176.878 50.4111 176.85 50.4392C176.26 50.8892 175.388 51.761 174.178 53.1952C174.122 53.2795 174.066 53.3077 174.01 53.392V53.842C174.01 54.8262 174.263 55.9792 174.741 57.301C175.135 58.6789 175.331 59.6913 175.331 60.3663C175.331 72.4025 175.331 84.4387 175.331 96.4748C175.331 97.2904 175.725 98.2184 177.497 98.134C178.481 98.1059 179.662 97.9653 180.984 97.656C182.249 97.3748 182.896 97.2341 184.19 96.9248C185.568 96.5873 186.243 96.4186 187.621 96.0811C188.689 95.7718 189.786 95.3218 190.911 94.7594L190.855 94.7875Z" fill="#C10230" />
  <path d="M205.582 43.5501C207.072 44.2532 209.125 44.5625 211.656 44.5063C211.684 44.5063 211.712 44.5063 211.74 44.5063H211.825C212.106 44.3938 212.584 44.2532 213.287 44.0563C214.046 43.8595 214.665 43.6345 215.171 43.4095C216.324 42.8752 217.252 42.2565 217.899 41.5535C218.546 40.9067 219.165 40.0911 219.811 39.1631C219.98 38.91 220.261 38.2913 219.193 37.6445C218.602 37.2789 217.899 37.0539 217.084 36.9415C216.127 36.8008 215.256 37.2227 214.412 38.1788C213.85 38.9662 213.147 39.5849 212.331 40.063C211.994 40.2317 211.628 40.3442 211.234 40.3442C210.644 40.3442 210.222 40.1755 209.941 39.8099C209.884 39.7255 209.828 39.613 209.772 39.4724C209.688 39.2475 209.519 39.0506 209.35 38.91C208.984 38.5444 208.394 38.2913 207.494 38.1507C206.65 38.0101 205.863 37.982 205.188 38.1226C203.669 38.4038 202.91 39.0225 202.91 39.9505C202.91 40.0349 202.91 40.0911 202.91 40.1755C203.079 41.6378 203.951 42.7908 205.554 43.5501H205.582Z" fill="#C10230" />
  <path d="M228.023 45.013C227.207 44.6193 226.335 44.3943 225.407 44.3662C224.648 44.3943 223.889 44.5631 223.158 44.9005C222.398 45.2099 221.752 45.6598 221.217 46.2223C221.217 46.2223 221.189 46.2504 221.161 46.2785C219.08 50.2437 218.068 52.3247 215.987 56.6274C215.565 57.5273 215.115 58.6803 214.637 60.0864C213.568 63.236 212.528 65.7108 211.6 67.3419C209.744 70.829 207.775 74.8223 205.722 79.1812C205.357 79.9405 205.16 80.3342 204.794 81.0935C204.682 79.0968 204.625 77.5501 204.625 76.4815V69.5635C204.625 66.6107 204.485 63.3485 204.204 59.8333C204.175 59.1584 204.147 58.8209 204.091 58.146C204.091 57.0492 204.26 55.7556 204.597 54.3776C204.822 53.6183 204.935 52.859 204.935 52.1279C204.935 51.5092 204.794 50.6374 204.513 49.4844C204.204 48.247 202.854 47.7408 200.632 47.9658C199.592 48.0783 198.72 48.3595 198.045 48.8376C197.314 49.3719 196.92 50.075 196.92 50.9468C196.948 51.4811 196.976 51.7623 197.032 52.2966C197.032 52.3247 197.032 52.3528 197.032 52.381C197.173 52.9715 197.229 53.4215 197.229 53.7027C197.201 56.1212 197.173 57.3586 197.117 59.777C197.117 61.155 197.145 62.1674 197.229 62.8142C197.286 63.7985 197.398 64.9234 197.539 66.1888C197.679 67.4543 197.764 68.4105 197.848 69.0573C198.214 72.2913 198.495 74.8223 198.551 76.4815C198.692 80.1373 198.748 82.8933 198.748 84.665C198.748 86.7179 198.663 88.7989 198.439 90.7956C198.354 91.6673 198.804 92.3141 199.816 92.7078C200.716 93.0453 201.729 93.1016 202.854 92.8485C205.16 92.3141 206.594 91.2174 207.044 89.6144C207.803 86.971 208.759 84.1869 209.884 81.5153C211.037 78.8156 212.584 75.3847 214.496 71.4477C214.609 71.2508 214.834 70.7165 215.649 68.3824C215.846 67.9043 216.296 66.7513 216.999 64.9515C217.674 63.2079 218.405 61.4081 219.193 59.6646C219.924 58.0054 220.346 57.4992 220.514 57.3023V62.6455C220.655 66.5544 220.795 69.5635 220.936 71.4195C220.908 76.7627 220.88 79.4624 220.824 85.0024V85.5368C220.824 85.5368 220.824 85.5649 220.824 85.593C220.88 86.0429 221.133 86.6616 222.033 86.9428C222.652 87.1397 223.383 87.1678 224.226 86.971C225.548 86.6898 226.645 86.1836 227.488 85.4805C228.417 84.6931 228.838 83.7651 228.754 82.7527C228.585 81.6278 228.501 81.0935 228.332 79.9686C228.276 79.1249 228.051 77.4095 227.713 74.9067C227.376 72.4319 227.207 70.6321 227.207 69.451C227.207 67.0044 227.348 63.2642 227.629 58.5397C227.685 57.4148 228.023 54.6588 228.641 50.2999C228.979 48.9501 229.204 47.6846 229.26 46.5316C229.345 45.9129 228.923 45.3786 228.023 44.9286V45.013Z" fill="#C10230" />
  <path d="M235.726 65.7947C236.43 73.5564 237.301 78.8996 238.426 81.4024C239.27 83.2585 240.254 84.1303 241.379 83.9053C242.11 83.7647 242.729 83.4553 243.235 82.9491C243.769 82.4148 244.051 81.8524 244.051 81.2899C244.051 79.2933 243.826 75.9468 243.235 71.6722C242.729 67.9601 242.363 65.0917 242.307 63.1794C243.516 62.7857 245.4 62.392 247.847 61.9983C248.438 61.9139 249.45 61.8014 250.856 61.6889C251.362 66.4697 251.643 72.7127 251.643 80.6994C251.643 81.4305 251.925 81.993 252.515 82.3867C253.05 82.7804 253.837 82.8929 254.849 82.7523C255.777 82.6398 256.593 82.2742 257.268 81.6555C257.999 81.0087 258.365 80.3057 258.365 79.5464C258.365 75.1031 258.055 69.085 257.437 61.6889C256.762 53.5617 256.396 48.6685 256.396 46.1375V45.1251C256.396 45.1251 256.396 45.097 256.396 45.0689C256.227 44.169 255.777 43.5503 255.074 43.2128C254.681 42.9878 254.09 42.8191 253.331 42.6785C252.6 42.566 251.756 42.5098 250.828 42.566C250.631 42.566 250.519 42.566 250.322 42.6223V44.1971C250.406 47.1218 250.434 48.6404 250.519 51.8181C250.659 54.0116 250.715 56.4864 250.715 59.2423C249.619 59.4111 248.072 59.6642 246.16 60.086C245.204 60.2828 244.247 60.5078 243.291 60.7047C242.616 60.8453 242.082 60.9296 241.688 61.014C241.604 60.6765 241.576 60.3953 241.576 60.1422C241.576 59.8048 241.604 59.4954 241.66 59.2423C241.66 58.8205 241.66 58.6236 241.66 58.2299C241.66 57.0488 241.548 55.2771 241.351 53.0274C241.07 51.1432 240.957 49.5121 240.957 48.2185C240.957 46.9249 241.098 45.7438 241.351 44.7595C241.379 44.647 241.407 44.5908 241.435 44.4783C241.323 44.4221 241.267 44.3939 241.154 44.3377C240.76 44.169 240.198 44.0284 239.41 43.944C238.651 43.8596 237.892 43.8315 237.161 43.9159C235.192 44.1127 234.883 44.9283 234.883 45.4063C234.883 47.2343 234.911 48.6966 234.995 49.6527C234.995 55.1928 235.248 60.6765 235.726 65.851V65.7947Z" fill="#C10230" />
  <path d="M288.053 60.9291C288.053 59.1574 287.322 55.8952 285.972 51.3957C284.651 46.9524 284.032 44.2527 284.032 43.156V42.9029C284.032 42.9029 283.835 42.8466 283.723 42.8185C282.907 42.5654 281.754 42.4248 280.235 42.4248C278.576 42.4248 276.973 43.381 275.258 45.462C273.824 47.2337 272.418 49.5115 271.152 52.3519C269.887 55.1641 268.48 58.7074 266.99 63.1226C265.64 66.8628 264.965 68.8032 263.587 72.909C262.434 76.3961 261.647 77.7179 261.197 78.1397C261.056 78.2522 261 78.3084 260.859 78.449C260.944 78.5896 260.972 78.674 261.056 78.8146C261.562 79.7989 263.165 80.0801 266.034 79.7989C266.118 79.7989 266.146 79.7989 266.231 79.7989C266.287 79.7426 266.315 79.6864 266.371 79.6301C266.821 79.124 267.243 78.449 267.693 77.6616C268.087 76.9586 268.509 76.1149 268.874 75.1869C269.212 74.2589 269.437 73.6964 269.493 73.4714C269.662 73.0215 269.746 72.7965 269.915 72.3466C270.196 71.4185 270.674 70.603 271.293 69.9281C273.402 69.8718 275.652 69.9281 278.014 70.0406C280.151 70.153 281.67 70.3499 282.598 70.5749V77.0992C282.598 77.9428 282.963 78.5615 283.666 78.9271C284.257 79.2083 285.1 79.3489 286.282 79.3208C289.516 79.2646 290.191 77.746 290.191 76.4524C290.191 74.3713 289.881 71.531 289.15 68.2408C288.447 65.063 288.025 62.5882 288.025 60.9572L288.053 60.9291ZM280.967 66.919C277.958 66.9753 275.089 66.919 272.389 66.694C272.558 65.5973 273.092 63.685 273.964 61.0697C274.977 58.0887 276.101 55.3609 277.283 52.9705C278.098 51.2832 278.717 50.3552 279.139 49.8209C279.307 51.705 280.039 55.5578 281.473 61.9414C281.895 63.7975 282.232 65.4567 282.429 66.7784C281.866 66.8347 281.36 66.8909 280.938 66.8909L280.967 66.919Z" fill="#C10230" />
  <path d="M295.512 79.2927C296.158 79.6302 296.974 79.8271 297.93 79.8552C298.746 79.8833 299.421 79.8271 299.927 79.6583C303.105 78.6459 304.932 76.9305 305.411 75.1869C305.748 73.9777 305.973 72.7966 306.029 71.7842C306.114 70.6874 306.142 70.1531 306.142 69.9563V68.7189C306.142 67.2565 306.732 65.7942 307.885 64.4444C308.616 63.6851 309.376 63.0664 310.191 62.6164C310.866 62.2508 311.766 61.9696 312.891 61.829C312.891 63.0383 312.947 64.8099 313.032 67.1441C313.144 69.8719 313.285 72.5435 313.482 75.1307C313.482 76.3118 313.65 77.4367 314.016 79.2365C314.016 79.2365 314.016 79.2365 314.016 79.2646C314.353 80.6145 315.45 81.43 317.278 81.7112C318.206 81.8518 318.825 81.8518 319.162 81.6831C319.472 81.5425 319.837 81.1488 319.837 80.1364C319.837 79.9395 319.837 79.8552 319.837 79.6864C319.725 78.196 319.64 77.8023 319.528 76.6774C319.471 75.9462 319.359 75.0463 319.218 73.9496C319.078 72.8809 318.993 71.6154 318.909 70.2937C318.797 68.5502 318.712 65.8504 318.712 62.4758V51.9582C318.712 50.6365 318.909 48.7242 319.331 46.2213C319.331 46.2213 319.331 46.1932 319.331 46.1651C319.331 45.5464 318.965 44.7027 317.25 44.1403C315.338 43.4654 313.622 43.0998 312.132 43.0154C311.344 42.9873 310.613 43.0154 309.966 43.0998C308.166 43.2685 307.267 43.3529 305.439 43.5216C302.008 43.8028 299.505 44.7871 298.014 46.4182C296.524 48.0493 295.765 49.7928 295.765 51.6207C295.765 53.9267 296.524 55.8109 298.014 57.1608C299.336 58.37 301.642 59.4668 304.848 60.5073C304.426 60.7885 303.92 61.1541 303.33 61.6322C302.261 62.4758 301.586 63.1226 301.305 63.5445C300.461 64.6412 299.927 65.6536 299.702 66.5254C299.505 67.3972 299.308 68.6345 299.167 70.2656C299.139 71.9248 299.111 72.7684 299.055 74.4558C299.055 75.0744 298.633 75.5525 297.818 75.89C297.565 75.9743 297.199 76.0587 296.721 76.115C296.158 76.1993 295.765 76.3118 295.455 76.3962C295.062 76.5368 294.78 76.818 294.555 77.2961C294.359 77.7742 294.415 78.1679 294.499 78.3928C294.64 78.7865 294.921 79.124 295.371 79.349L295.512 79.2927ZM303.217 49.2023C303.667 48.5273 304.314 47.9086 305.129 47.3181C305.917 46.7556 306.789 46.4182 307.745 46.2776C308.616 46.1088 309.629 45.9682 310.81 45.8557C311.541 45.7995 312.104 45.7433 312.525 45.7151C312.666 50.9739 312.75 53.7018 312.919 59.3262C312.497 59.2137 311.963 59.0449 311.344 58.8762C310.304 58.595 309.46 58.37 308.701 58.2294C306.873 57.8638 305.439 57.3857 304.454 56.7671C303.526 56.2046 303.048 55.5859 302.992 54.8548C302.936 54.3205 302.88 53.5893 302.88 52.6331C302.795 51.8176 302.767 51.4239 302.683 50.6365C302.655 50.4396 302.711 50.0178 303.245 49.2304L303.217 49.2023Z" fill="#C10230" />
  <path d="M66.0691 151.257C65.2535 151.229 63.8756 151.426 61.9633 151.989C60.3322 152.467 58.9261 152.72 57.8293 152.692C55.1577 152.579 53.0205 151.876 51.4738 150.526C49.8427 149.176 48.7178 147.517 48.1273 145.577C47.3398 143.468 46.8899 141.33 46.8337 139.221C46.6368 136.69 46.5243 134.665 46.5243 133.231V131.881C46.5243 131.713 46.5806 131.235 47.0024 130.194C47.2836 129.463 47.4523 128.788 47.4523 128.141C47.4242 127.354 47.3961 126.96 47.3398 126.201C47.2555 125.413 47.2274 125.02 47.143 124.204C47.143 123.164 47.1992 122.742 47.2274 122.573C47.2274 122.517 47.2274 122.517 47.2274 122.461C47.2274 121.982 47.2836 121.448 47.4242 120.886C47.5367 120.351 47.7336 119.93 47.9866 119.648C48.6053 118.805 49.5052 118.355 50.602 118.242C52.1487 118.158 54.0329 118.439 56.2826 119.002V119.114C56.9576 119.283 57.2669 119.367 57.9418 119.536C58.2793 119.845 58.7855 120.126 59.5448 120.408C61.3727 121.083 62.9756 121.448 64.1005 121.279C65.0286 121.139 65.2535 120.661 65.2535 120.295C65.2535 119.367 64.3818 118.439 62.6382 117.455C61.0915 116.583 59.3479 115.88 57.52 115.374C52.7393 114.052 48.7178 113.405 45.5963 113.743C42.3341 114.108 40.6749 115.571 40.6749 118.158C40.6749 118.777 40.7593 119.423 40.9562 120.07C40.5062 121.279 40.2531 123.051 40.2531 125.329C40.2531 126.426 40.225 127.522 40.1406 128.591V132.303C40.1406 134.553 40.1687 136.1 40.2531 137.028C40.5343 140.852 41.0968 144.058 41.9123 146.449C42.3341 147.883 42.9809 149.289 43.8246 150.611C44.6683 151.932 45.6525 153.029 46.7212 153.873C47.9304 154.745 49.3646 155.448 51.0238 155.926C52.683 156.432 54.5109 156.657 56.4795 156.657C57.3231 156.657 58.4199 156.657 59.7979 156.572C62.2726 156.432 64.5224 156.066 66.3222 155.504C68.4313 154.857 69.5281 153.845 69.5281 152.523V152.27C69.5281 152.27 69.3593 152.185 69.275 152.129C68.1782 151.595 67.0815 151.286 66.0409 151.229L66.0691 151.257Z" fill="white" />
  <path d="M95.2281 128.506C94.4407 126.566 92.8378 124.682 90.4193 122.938C88.2258 121.335 85.1886 120.295 81.4765 119.788C80.211 119.62 78.9174 119.563 77.6238 119.62C75.4584 119.873 73.7711 120.604 72.6181 121.841C71.4932 123.247 70.762 124.766 70.5089 126.341C70.1715 127.803 69.9746 129.575 69.9746 131.543C69.9746 132.753 70.0027 133.821 70.0871 134.637V137.252C70.1152 138.293 70.1433 138.799 70.1996 139.839C70.537 142.595 71.0714 145.042 71.7463 147.123C72.7306 150.132 74.2773 152.522 76.2739 154.182C77.3988 155.138 78.7768 155.897 80.3516 156.459C81.9264 156.994 83.6981 157.247 85.6104 157.247C87.5227 157.247 89.435 156.909 90.9817 156.235C92.5565 155.644 93.7939 154.941 94.6657 154.097C95.5375 153.254 95.9874 152.382 95.9874 151.566C95.9874 150.582 96.1843 149.71 96.578 149.007C96.578 149.007 96.578 148.979 96.6061 148.951V148.726C96.6061 148.023 96.7467 147.179 96.9998 146.167C97.3654 144.817 97.5341 143.917 97.5341 143.383V140.908C97.5341 139.08 97.3935 137.055 97.1123 134.918C96.9717 132.95 96.3249 130.784 95.2281 128.506ZM85.8073 154.21C84.4574 154.21 83.1076 153.704 81.8702 152.747C79.8173 151.173 78.2425 148.36 77.1738 144.339C76.2177 141.33 75.7396 138.715 75.7396 136.662V136.465C75.7396 135.734 75.7677 135.143 75.8521 134.693C75.8802 134.074 75.9083 133.765 75.9646 133.118C76.0208 131.628 76.3021 130.053 76.6676 128.422C77.0051 126.988 77.6519 125.638 78.6643 124.485C79.3955 123.472 80.4922 123.079 82.0108 123.276C83.0794 123.416 84.12 123.754 85.048 124.26C86.0041 124.794 86.7915 125.469 87.4383 126.257C88.8726 128.028 89.885 129.997 90.4193 132.106C91.0661 134.609 91.516 136.69 91.6285 138.265C91.6566 139.924 91.6848 140.711 91.741 142.342C91.741 143.523 91.6566 144.48 91.5442 145.183C91.2629 146.842 90.9536 148.388 90.588 149.682C90.2224 150.948 89.66 152.044 88.8726 152.86C88.0289 153.76 87.0165 154.21 85.8073 154.182V154.21Z" fill="white" />
  <path d="M126.312 122.01C125.44 121.869 124.765 121.813 124.231 121.841C123.471 121.869 122.572 122.094 121.503 122.432C118.916 123.275 117.116 124.484 116.16 126.087C115.4 127.381 114.754 129.096 114.276 131.065C114.135 131.431 113.938 131.993 113.713 132.696C113.46 133.427 113.263 133.99 113.066 134.44C112.588 135.368 111.913 136.464 111.042 137.73C110.564 138.405 110.142 138.967 109.748 139.445V132.78C109.748 131.937 109.692 130.643 109.551 128.787C109.523 128.168 109.495 127.859 109.439 127.24C109.439 126.903 109.411 126.481 109.326 125.891C109.27 125.328 109.186 124.822 109.129 124.428C109.045 123.725 108.595 123.107 107.836 122.657C107.076 122.207 106.12 122.038 104.967 122.122C102.38 122.291 101.846 123.331 101.846 124.203C101.846 124.513 101.902 124.738 101.986 124.934C102.802 127.409 103.308 129.406 103.505 130.924C103.842 133.484 104.152 137.28 104.433 141.948C104.433 142.82 104.461 143.439 104.545 143.861C104.545 145.154 104.574 146.054 104.658 146.701C104.855 147.966 104.967 149.147 104.967 150.272C104.967 151.791 104.714 153.338 104.152 154.8C104.039 155.081 104.095 155.362 104.292 155.587C104.602 155.925 105.22 156.178 106.176 156.347C106.767 156.459 107.358 156.515 107.948 156.515C110.198 156.515 110.535 155.644 110.535 155.109C110.535 152.635 110.31 148.754 109.86 143.073C111.182 143.242 112.307 143.636 113.179 144.198C114.163 144.817 114.641 145.435 114.641 146.054C114.726 147.066 114.754 147.601 114.838 148.585C114.979 151.088 115.26 152.86 115.682 153.956C115.85 154.8 116.638 155.503 118.044 156.037C119.394 156.572 121.025 156.825 122.881 156.825C124.118 156.825 125.187 156.684 126.002 156.403C127.155 156.009 127.409 155.475 127.409 155.109C127.409 154.659 127.071 154.294 126.424 154.041C125.89 153.816 125.046 153.647 123.837 153.506C122.065 153.422 121.897 152.86 121.84 152.719C121.756 152.381 121.728 152.213 121.644 151.875C121.025 148.838 120.547 146.701 120.294 145.717C119.928 144.282 119.084 143.017 117.791 142.061C116.778 141.33 115.625 140.823 114.304 140.57C114.782 140.261 115.147 139.895 115.429 139.502C115.85 138.883 116.188 138.124 116.413 137.28C116.553 136.38 117.172 135.171 118.269 133.652C118.635 133.202 119.084 132.302 119.563 130.868C119.956 129.856 120.406 128.843 120.884 128C121.615 126.65 123.247 125.834 125.834 125.497C127.577 125.216 128.449 124.653 128.449 123.81C128.449 123.107 128.083 122.207 126.396 121.954L126.312 122.01Z" fill="white" />
  <path d="M155.281 126.258C154.493 124.289 152.862 122.574 150.472 121.224C148.278 120.015 145.241 119.677 141.529 120.043C140.264 120.184 138.97 120.437 137.677 120.859C135.511 121.674 133.824 122.883 132.671 124.458C131.546 126.174 130.815 127.861 130.562 129.464C130.224 130.983 130.027 132.726 130.027 134.61C130.027 135.763 130.055 136.748 130.14 137.507V139.953C130.168 140.91 130.196 141.388 130.252 142.316C130.59 144.79 131.124 146.9 131.799 148.671C132.783 151.258 134.33 153.227 136.327 154.633C137.452 155.42 138.83 156.095 140.404 156.545C141.979 156.995 143.751 157.248 145.663 157.248C147.575 157.248 149.488 156.939 151.034 156.264C152.609 155.674 153.847 154.914 154.718 154.014C155.59 153.086 156.04 152.158 156.04 151.287C156.04 150.246 156.237 149.29 156.631 148.502C156.631 148.474 156.631 148.446 156.659 148.418V148.165C156.659 147.406 156.799 146.478 157.053 145.353C157.418 143.834 157.587 142.822 157.587 142.231V139.503C157.587 137.479 157.446 135.285 157.165 132.923C157.024 130.758 156.378 128.48 155.281 126.202V126.258ZM145.86 154.492C144.51 154.492 143.16 154.099 141.923 153.255C139.87 151.877 138.295 149.43 137.227 145.775C136.27 143.075 135.792 140.628 135.792 138.632V138.463C135.792 137.76 135.82 137.169 135.905 136.719C135.933 136.101 135.961 135.791 136.017 135.173C136.074 133.71 136.355 132.079 136.72 130.336C137.058 128.789 137.705 127.27 138.717 125.836C139.448 124.599 140.545 123.924 142.064 123.783C143.132 123.699 144.173 123.811 145.101 124.205C146.057 124.571 146.844 125.105 147.491 125.808C148.925 127.383 149.938 129.295 150.472 131.432C151.119 133.992 151.569 136.157 151.681 137.788C151.709 139.532 151.737 140.403 151.794 142.091C151.794 143.328 151.709 144.34 151.597 145.1C151.316 146.871 151.006 148.474 150.641 149.824C150.275 151.146 149.685 152.243 148.925 153.114C148.082 154.042 147.069 154.492 145.86 154.521V154.492Z" fill="white" />
  <path d="M179.253 114.698C178.493 114.529 177.678 114.529 176.778 114.698C176.3 114.81 174.922 115.12 172.532 115.682C166.767 117.06 162.605 118.157 160.214 119.057C158.217 119.816 157.346 120.463 157.346 121.222C157.346 121.672 157.571 122.235 158.696 122.488C159.427 122.656 160.299 122.628 161.283 122.488C162.436 122.235 163.026 122.094 164.179 121.841C165.304 121.531 166.092 121.335 166.57 121.25C166.935 121.728 167.329 122.909 167.329 125.665C167.329 126.678 167.301 127.55 167.217 128.309C167.217 128.928 167.217 129.377 167.16 129.659C167.132 129.968 167.104 130.193 167.104 130.334C167.104 131.571 167.357 134.299 167.835 138.32C168.313 142.314 168.538 144.845 168.566 145.913C168.482 146.954 168.454 147.46 168.37 148.472C168.285 148.979 168.257 149.232 168.173 149.738C167.891 151.285 167.751 152.606 167.751 153.647C167.751 154.406 168.088 155.053 168.791 155.559C169.466 156.065 170.394 156.318 171.575 156.318C173.825 156.318 175.063 155.278 175.063 153.45C175.063 152.241 174.922 150.694 174.641 148.95C174.388 147.263 174.247 145.773 174.247 144.507C174.247 143.41 174.078 141.498 173.741 138.601C173.46 136.352 173.319 134.355 173.319 132.668C173.319 131.402 173.347 130.249 173.431 129.209C173.46 127.831 173.488 127.128 173.544 125.722C173.544 123.866 173.347 121.813 172.925 119.563C173.094 119.535 173.178 119.507 173.347 119.479C173.994 119.338 174.613 119.254 175.175 119.169C175.934 119.029 176.3 118.972 177.031 118.86C177.987 118.663 178.831 118.326 179.478 117.876C180.434 117.201 180.631 116.526 180.631 116.076C180.631 115.401 180.181 114.951 179.309 114.754L179.253 114.698Z" fill="white" />
  <path d="M197.938 151.398C195.857 151.538 194.816 151.623 192.707 151.763C192.707 145.127 192.707 141.78 192.707 135.031C192.988 134.89 193.494 134.722 194.338 134.609C194.872 134.525 195.125 134.497 195.66 134.412C196.166 134.356 196.419 134.328 196.925 134.3C197.797 134.187 198.528 133.85 199.119 133.315C199.766 132.753 200.103 132.106 200.103 131.459C200.103 130.813 199.709 130.335 198.894 130.025C198.191 129.772 197.431 129.688 196.588 129.828C195.66 129.969 194.507 130.278 193.129 130.728C192.791 130.813 192.623 130.869 192.313 130.953C192.369 129.913 192.398 129.407 192.482 128.366C192.679 126.791 192.791 125.666 192.791 124.879C192.707 123.613 192.679 122.967 192.594 121.701C192.51 121.054 192.482 120.745 192.398 120.126C192.173 118.58 192.032 117.202 192.004 116.02C192.145 115.992 192.341 115.936 192.623 115.88C193.157 115.767 193.607 115.683 194.057 115.627C194.619 115.514 194.929 115.458 195.491 115.317C196.785 115.036 200.75 114.221 200.75 111.915C200.75 110.762 199.316 110.565 198.866 110.509C197.797 110.34 196.644 110.396 195.491 110.649C194.394 110.902 193.073 111.268 191.638 111.746C190.092 112.252 188.826 112.59 187.898 112.786C187.842 112.786 187.814 112.786 187.757 112.815C187.701 112.843 187.673 112.871 187.645 112.899C187.054 113.349 186.183 114.249 184.973 115.599C184.917 115.683 184.861 115.711 184.805 115.795V116.189C184.805 117.033 185.058 117.989 185.536 119.086C185.93 120.239 186.126 121.111 186.126 121.701C186.126 134.89 186.126 141.302 186.126 153.788C186.126 154.548 186.548 155.447 188.292 155.729C189.276 155.897 190.457 155.982 191.779 155.982C193.044 155.982 193.691 155.982 194.985 155.954C196.363 155.926 197.038 155.897 198.416 155.869C199.484 155.785 200.581 155.56 201.706 155.251C202.915 154.913 203.731 154.435 204.209 153.844C204.265 153.788 204.293 153.76 204.349 153.676V153.226C204.349 151.735 202.381 151.173 197.966 151.342L197.938 151.398Z" fill="white" />
  <path d="M224.9 107.724C223.522 106.796 221.666 106.234 219.528 105.981C217.391 105.756 215.001 105.925 212.442 106.459C210.754 106.825 209.32 107.64 208.195 108.906C208.083 109.018 208.027 109.102 207.914 109.215C207.97 109.356 207.998 109.412 208.055 109.552C209.798 114.052 210.698 121.11 210.698 130.644C210.698 133.4 210.586 137.365 210.389 142.483C210.304 146.73 210.276 148.867 210.192 153.141C210.192 153.901 210.473 154.547 211.064 155.082C211.598 155.56 212.329 155.813 213.201 155.813C214.495 155.813 215.451 155.504 216.098 154.941C216.772 154.323 217.11 153.479 217.11 152.466C217.11 150.61 216.997 148.164 216.801 145.295C216.801 143.889 216.772 142.821 216.688 142.061C216.604 140.683 216.576 140.008 216.491 138.659C216.407 136.24 216.379 135.031 216.294 132.64C220.344 130.672 223.522 128.197 225.687 125.329C227.965 122.32 229.118 119.029 229.118 115.655C229.118 112.28 227.684 109.665 224.9 107.781V107.724ZM214.832 110.565C215.619 110.733 216.013 110.846 216.801 111.015C219.219 111.521 220.119 111.886 220.456 112.083C220.541 112.168 220.738 112.308 221.384 112.786C221.863 113.124 222.172 113.489 222.369 113.855C222.678 115.177 222.847 116.33 222.847 117.23V117.286C222.847 119.283 222.256 121.251 221.047 123.051C219.95 124.738 218.235 126.482 215.985 128.225C215.76 124.598 215.648 122.826 215.423 119.283C215.057 115.514 214.86 112.59 214.804 110.565H214.832Z" fill="white" />
  <path d="M256.574 127.662C256.574 124.906 255.842 119.929 254.493 113.123C253.171 106.374 252.552 102.296 252.552 100.637V100.243C252.552 100.243 252.355 100.187 252.215 100.131C251.399 99.8496 250.246 99.8496 248.728 100.131C247.068 100.412 245.465 102.184 243.75 105.643C242.316 108.567 240.91 112.223 239.644 116.526C238.379 120.8 236.973 126.087 235.482 132.246C234.132 137.477 233.457 140.12 232.079 145.407C230.926 149.907 230.139 151.425 229.689 151.903C229.548 152.044 229.492 152.1 229.352 152.241C229.436 152.438 229.464 152.522 229.548 152.691C230.055 153.872 231.658 154.434 234.526 154.378C234.61 154.378 234.638 154.378 234.723 154.378L234.863 154.209C235.313 153.675 235.763 152.944 236.185 152.016C236.607 151.116 237.001 150.047 237.366 148.81C237.732 147.573 237.929 146.813 237.985 146.504C238.154 145.885 238.238 145.604 238.407 144.985C238.688 143.72 239.166 142.595 239.785 141.639C241.894 141.583 244.144 141.639 246.506 141.808C248.643 141.976 250.162 142.201 251.09 142.539V152.241C251.09 153.281 251.455 154.041 252.158 154.491C252.749 154.856 253.593 155.025 254.774 155.025C258.008 155.025 258.683 153.141 258.683 151.566C258.683 148.36 258.373 144.001 257.642 138.883C256.939 133.962 256.517 130.221 256.517 127.69L256.574 127.662ZM249.487 137.083C246.478 137.336 243.609 137.308 240.91 137.055C241.078 135.508 241.613 132.752 242.485 128.9C243.497 124.484 244.622 120.351 245.803 116.554C246.618 113.911 247.237 112.42 247.659 111.548C247.828 114.389 248.559 120.041 249.993 129.575C250.415 132.33 250.752 134.805 250.949 136.83C250.387 136.971 249.881 137.055 249.459 137.083H249.487Z" fill="white" />
  <path d="M288.622 145.858C288.537 144.789 288.397 143.327 288.087 141.471C287.693 139.052 287.469 137.253 287.469 136.156C287.469 135.2 287.553 134.272 287.75 133.372C287.75 133.315 287.75 133.287 287.778 133.231C287.778 133.175 287.778 133.147 287.778 133.09C287.637 132.078 287.525 130.278 287.412 127.775C287.328 125.413 287.215 123.557 287.159 122.376C287.356 120.857 287.525 118.411 287.665 114.896C287.665 113.321 287.665 111.999 287.778 111.015C287.834 110.171 287.862 109.412 287.834 108.765C287.806 108.174 287.778 107.668 287.778 107.246C287.778 107.218 287.778 107.19 287.778 107.162C287.722 106.628 287.693 105.84 287.693 104.772C287.693 103.394 287.834 102.184 288.087 101.144C288.312 100.497 288.425 99.316 286.962 98.3599C286.034 97.7693 284.853 97.46 283.475 97.46C279.876 97.4881 274.336 97.5724 267.305 98.2192C266.124 98.3317 265.224 98.6411 264.633 99.1191C263.959 99.6535 263.621 100.441 263.621 101.425C263.902 108.118 264.127 113.602 264.352 117.37C264.493 120.07 264.633 122.123 264.774 123.585C264.915 125.385 265.055 128.253 265.196 132.106V135.65C265.196 140.993 265.083 146.505 264.887 152.129C264.887 153.451 265.477 155.026 268.261 155.026C269.33 155.082 270.145 154.913 270.764 154.463C271.692 153.844 271.889 152.832 271.861 152.073C271.664 148.445 271.551 146.645 271.355 143.102C271.383 142.174 271.411 141.696 271.467 140.768C271.608 139.587 271.664 138.659 271.664 137.899C271.664 136.718 271.551 135.059 271.242 132.894C270.989 131.15 270.848 129.8 270.848 128.9V122.882C270.68 115.908 270.708 113.996 270.736 113.546C270.736 113.518 270.736 113.489 270.736 113.461C270.736 110.452 270.764 107.921 270.848 105.925C270.905 103.872 271.158 102.916 271.383 102.438C272.986 101.931 274.729 101.622 276.501 101.566C277.092 101.566 278.104 101.566 279.454 101.622C281.057 101.706 281.479 101.819 281.563 101.875C281.591 101.875 281.619 102.044 281.619 102.184C281.591 103.309 281.563 103.872 281.507 104.997C281.507 109.018 281.535 111.605 281.619 112.73C281.675 116.245 281.732 121.56 281.732 128.703C281.704 131.488 281.675 132.894 281.619 135.734C281.591 136.606 281.563 137.056 281.507 137.927C281.872 143.777 282.069 146.758 282.435 152.832C282.435 152.86 282.435 152.888 282.435 152.916C282.603 154.013 282.941 154.801 283.447 155.222C283.925 155.616 284.713 155.813 285.922 155.813C287.159 155.813 287.975 155.476 288.425 154.801C288.706 154.379 288.818 153.873 288.818 153.254C288.846 152.551 288.875 152.213 288.931 151.51C288.931 150.695 288.875 149.457 288.734 147.742C288.706 146.983 288.678 146.617 288.622 145.858Z" fill="white" />
  <path d="M325.727 101.397C324.911 100.581 324.039 100.019 323.083 99.6813C322.324 99.5126 321.565 99.5126 320.833 99.6813C320.074 99.8781 319.427 100.272 318.893 100.862C318.893 100.862 318.865 100.891 318.837 100.919C316.756 105.587 315.743 107.977 313.662 112.899C313.241 113.911 312.791 115.289 312.313 116.948C311.244 120.688 310.203 123.529 309.275 125.329C307.419 129.237 305.451 133.709 303.398 138.715C303.032 139.586 302.835 140.008 302.47 140.88C302.357 138.265 302.301 136.24 302.301 134.834V125.975C302.301 122.207 302.16 118.017 301.879 113.602C301.851 112.758 301.823 112.336 301.767 111.493C301.767 110.115 301.936 108.568 302.273 106.937C302.498 106.037 302.61 105.137 302.61 104.237C302.61 103.478 302.47 102.381 302.189 100.891C301.879 99.3157 300.529 98.4158 298.308 98.3033C297.267 98.2471 296.396 98.4439 295.721 98.8939C294.989 99.4001 294.596 100.159 294.596 101.172C294.624 101.819 294.652 102.128 294.708 102.775C294.708 102.803 294.708 102.831 294.708 102.859C294.849 103.562 294.905 104.125 294.905 104.49C294.877 107.359 294.849 108.821 294.793 111.746C294.793 113.405 294.821 114.642 294.905 115.486C294.961 116.695 295.074 118.129 295.214 119.704C295.355 121.307 295.439 122.516 295.524 123.36C295.889 127.55 296.171 130.812 296.227 132.95C296.367 137.674 296.424 141.302 296.424 143.608C296.424 146.307 296.339 149.007 296.114 151.623C296.03 152.747 296.48 153.76 297.492 154.603C298.392 155.363 299.405 155.728 300.529 155.728C302.835 155.728 304.27 154.716 304.72 152.747C305.479 149.485 306.435 146.195 307.56 143.073C308.713 139.924 310.26 136.015 312.172 131.543C312.284 131.347 312.509 130.728 313.325 127.972C313.522 127.41 313.972 126.088 314.675 123.979C315.35 121.926 316.081 119.873 316.868 117.876C317.599 115.992 318.021 115.43 318.19 115.261C318.19 118.017 318.19 119.423 318.19 122.235C318.331 127.381 318.471 131.29 318.612 133.737C318.584 140.599 318.556 144.086 318.499 151.116V151.791C318.499 151.791 318.499 151.848 318.499 151.876C318.556 152.466 318.809 153.31 319.709 153.929C320.327 154.35 321.058 154.575 321.902 154.575C323.224 154.575 324.321 154.266 325.164 153.647C326.092 152.944 326.514 151.932 326.43 150.638C326.261 149.204 326.177 148.501 326.036 147.067C325.98 145.998 325.755 143.805 325.417 140.514C325.08 137.28 324.911 134.89 324.911 133.4C324.911 130.25 325.052 125.497 325.333 119.367C325.389 117.932 325.727 114.417 326.345 108.793C326.683 107.105 326.908 105.446 326.964 103.928C327.048 103.112 326.627 102.24 325.727 101.312V101.397Z" fill="white" />
  <path d="M357.416 153.731C357.303 152.437 357.219 151.79 357.107 150.468C357.05 149.625 356.938 148.556 356.797 147.291C356.657 146.025 356.572 144.563 356.488 142.96C356.375 140.851 356.291 137.645 356.291 133.455V120.265C356.291 118.606 356.488 116.131 356.91 113.01C356.91 113.01 356.91 112.982 356.91 112.954C356.91 112.166 356.544 110.957 354.829 109.72C352.916 108.285 351.201 107.273 349.711 106.767C348.923 106.486 348.192 106.345 347.545 106.317C345.745 106.092 344.845 106.008 343.018 105.867C339.587 105.53 337.084 106.57 335.593 108.82C334.103 111.07 333.344 113.657 333.344 116.413C333.344 119.928 334.103 122.796 335.593 124.877C336.915 126.762 339.221 128.533 342.427 130.164C342.005 130.53 341.499 131.008 340.88 131.655C339.812 132.808 339.137 133.651 338.856 134.214C338.012 135.704 337.478 137.11 337.253 138.348C337.056 139.557 336.859 141.273 336.718 143.522C336.69 145.8 336.662 146.953 336.606 149.259C336.606 150.103 336.184 150.778 335.368 151.256C335.115 151.368 334.75 151.481 334.272 151.593C333.709 151.734 333.315 151.874 333.006 152.015C332.612 152.212 332.331 152.521 332.106 153.027C331.909 153.534 331.966 153.927 332.05 154.18C332.191 154.602 332.472 154.94 332.922 155.165C333.569 155.502 334.384 155.671 335.34 155.699C336.156 155.699 336.831 155.615 337.337 155.418C340.515 154.237 342.343 152.437 342.821 150.103C343.158 148.472 343.383 146.953 343.439 145.575C343.524 144.113 343.552 143.382 343.552 143.129V141.497C343.552 139.529 344.142 137.589 345.295 135.761C346.027 134.748 346.786 133.961 347.601 133.398C348.276 132.92 349.176 132.611 350.301 132.442C350.301 134.017 350.357 136.323 350.442 139.304C350.554 142.763 350.695 146.166 350.892 149.315C350.892 150.778 351.06 152.324 351.426 153.956C351.426 153.956 351.426 153.956 351.426 153.984C351.763 155.193 352.86 155.812 354.688 155.84C355.616 155.84 356.235 155.755 356.572 155.558C356.882 155.39 357.247 154.996 357.247 154.096C357.247 153.927 357.247 153.843 357.247 153.702L357.416 153.731ZM340.346 118.887C340.262 117.706 340.233 117.116 340.149 115.935C340.121 115.625 340.177 115.007 340.712 113.938C341.162 113.01 341.808 112.194 342.624 111.491C343.411 110.816 344.283 110.479 345.239 110.479C346.111 110.395 347.123 110.423 348.304 110.535C349.036 110.62 349.598 110.676 350.02 110.704C350.161 118.072 350.245 121.784 350.414 129.18C349.992 128.983 349.457 128.758 348.839 128.477C347.826 128.027 346.955 127.661 346.195 127.408C344.367 126.762 342.933 125.974 341.949 125.018C341.021 124.146 340.543 123.19 340.487 122.121C340.43 121.362 340.374 120.294 340.374 118.916L340.346 118.887Z" fill="white" />
  <path d="M101.814 207.473C101.842 212.732 103.923 218.891 113.513 221.393C120.234 223.165 128.165 221.984 135.476 221.309C143.407 220.578 151.309 219.734 159.267 219.228C172.147 218.412 185.027 218.047 197.907 217.963C214.105 217.85 230.388 217.231 246.586 216.106C262.25 215.01 277.52 212.647 293.184 211.523C303.589 210.763 313.994 210.904 324.315 211.101C341.807 211.438 380.615 213.744 379.884 199.008C379.715 195.634 377.353 189.138 377.325 188.941C376.706 183.513 377.578 178.029 378.169 172.546C378.619 168.412 377.044 163.547 370.407 161.1C364.248 158.822 355.502 159.272 348.106 159.469C331.852 159.891 315.597 160.425 299.343 161.1C267.537 162.422 235.365 164.25 203.897 166.64C191.073 167.596 177.884 167.315 165.032 168.018C152.349 168.721 139.16 167.343 126.477 167.905C124.593 167.99 122.737 168.046 120.937 168.159C117.056 168.412 113.372 168.862 109.885 170.183C105.92 171.702 105.076 174.795 103.67 177.214C102.152 179.885 102.995 184.076 103.923 186.578C104.598 188.406 104.402 192.906 104.261 194.762C103.895 199.852 101.73 202.383 101.758 207.473H101.814Z" fill="#C10230" />
  <path d="M123.422 195.239C124.519 193.917 125.082 192.145 124.969 190.233C124.829 188.011 123.816 185.959 122.157 184.637C121.257 183.962 119.935 183.456 118.642 183.287C118.079 183.231 117.573 183.203 117.123 183.231C116.223 183.287 115.436 183.512 114.789 183.906C114.705 183.962 114.648 184.074 114.648 184.159C114.648 184.862 114.705 185.565 114.733 186.24C114.817 187.787 114.958 189.418 115.183 191.358C115.38 193.214 115.633 195.408 115.745 197.657C115.886 200.076 115.801 202.944 115.745 205.194C115.745 205.56 115.689 205.981 115.661 206.375C115.605 206.684 115.633 206.909 115.661 207.134C115.689 207.641 115.858 208.006 116.195 208.372C116.364 208.512 116.448 208.709 116.504 208.906C116.504 208.99 116.561 209.075 116.645 209.103C116.729 209.159 116.842 209.215 116.926 209.272C117.039 209.328 117.123 209.384 117.208 209.44C117.433 209.609 117.686 209.694 117.967 209.694H118.051C118.22 209.694 118.389 209.694 118.557 209.694C118.67 209.694 118.782 209.694 118.895 209.694C120.245 209.609 121.735 209.187 122.888 208.512C124.21 207.753 125.419 206.741 126.347 205.728C127.444 204.435 128.006 202.832 127.922 201.173C127.753 198.332 126.319 196.448 123.451 195.239H123.422ZM121.229 192.961C120.61 193.973 119.851 194.705 119.092 194.958C118.923 195.042 118.839 195.042 118.726 195.042H118.614H118.557C118.389 193.242 118.22 191.752 117.995 190.346C117.826 189.249 117.714 188.208 117.686 187.28C117.657 186.746 117.629 186.212 117.629 185.677C118.81 185.565 119.907 185.902 120.723 186.634C121.566 187.393 122.073 188.574 122.157 189.868C122.185 190.852 121.848 192.005 121.229 192.961ZM118.782 197.882C119.035 197.798 119.26 197.742 119.485 197.714C119.767 197.657 120.104 197.545 120.413 197.46C120.61 197.404 120.807 197.32 120.948 197.207C121.06 197.123 121.088 197.123 121.145 197.095C121.201 197.095 121.285 197.095 121.482 197.179C121.707 197.264 121.932 197.348 122.101 197.348C123.31 197.685 124.266 198.557 124.716 199.795C124.857 200.132 124.913 200.526 124.941 200.919C124.997 201.847 124.744 202.804 124.182 203.704C123.872 204.21 123.226 204.8 122.691 205.25L122.579 205.363C121.37 206.459 120.245 206.966 118.867 207.078C118.754 205.616 118.782 204.125 118.81 202.747C118.81 202.635 118.81 202.522 118.81 202.382C118.81 202.269 118.81 202.157 118.81 202.016V201.313C118.81 200.216 118.839 199.12 118.782 197.939V197.882Z" fill="white" />
  <path d="M141.735 205.195C141.623 204.773 141.538 204.436 141.51 204.155C141.51 204.042 141.51 203.93 141.538 203.845C141.538 203.845 141.538 203.789 141.538 203.761C141.538 203.677 141.595 203.592 141.567 203.452C141.567 203.199 141.426 202.945 141.285 202.692C141.229 202.608 141.145 202.467 141.117 202.327C140.948 201.736 140.807 201.061 140.667 200.161L140.217 197.743C140.076 196.927 139.907 196.112 139.767 195.24C139.486 193.721 139.176 192.09 138.811 190.572L138.67 189.981C138.558 189.475 138.417 188.997 138.333 188.491C138.192 187.788 137.967 186.972 137.686 186.185L137.32 185.2C137.32 185.2 137.236 184.976 137.208 184.863C137.151 184.694 137.095 184.554 137.011 184.385C136.814 183.935 136.589 183.513 135.998 183.007C135.577 182.726 135.239 182.613 134.845 182.613C134.62 182.613 134.396 182.698 134.227 182.782C134.142 182.81 134.086 182.894 134.058 182.979C133.805 183.738 133.467 184.891 133.327 186.016C133.243 186.55 133.186 187.057 133.13 187.619L132.933 189.166C132.708 191.162 132.343 193.272 132.033 195.184C132.005 195.381 131.977 195.578 131.921 195.774C131.893 195.971 131.836 196.196 131.808 196.365C131.499 198.165 131.218 199.796 131.049 201.483C130.993 201.989 130.937 202.552 130.965 203.142C130.965 203.733 130.937 204.352 130.88 204.886C130.88 205.111 130.796 205.392 130.74 205.645L130.543 206.517C130.458 206.883 130.374 207.332 130.43 207.726C130.43 207.867 130.487 208.036 130.515 208.176C130.571 208.485 130.852 208.767 131.358 209.048C131.64 209.217 131.921 209.273 132.202 209.273C132.23 209.273 132.258 209.273 132.286 209.273C132.427 209.273 132.511 209.217 132.624 209.189C132.624 209.189 132.708 209.189 132.708 209.16C133.074 208.992 133.327 208.682 133.467 208.176C133.636 207.529 133.664 206.714 133.692 205.955V205.476C133.692 205.139 133.777 204.886 133.833 204.689C133.974 204.689 134.142 204.689 134.283 204.689C134.508 204.689 134.733 204.689 134.958 204.689C135.267 204.689 135.549 204.633 135.858 204.633C136.139 204.633 136.392 204.577 136.645 204.577C137.348 204.52 137.967 204.577 138.529 204.689C138.614 204.998 138.67 205.42 138.726 205.814V206.095C138.811 206.658 138.895 207.389 139.261 207.923C139.373 208.12 139.514 208.26 139.654 208.317C139.964 208.57 140.357 208.682 140.751 208.682C140.807 208.682 140.835 208.682 140.892 208.682C141.426 208.682 142.185 208.317 142.185 207.501C142.185 206.883 141.96 206.123 141.679 205.336V205.223L141.735 205.195ZM138.079 202.102C137.405 202.046 136.673 202.074 135.886 202.13C135.52 202.186 135.127 202.214 134.761 202.214C134.536 202.214 134.283 202.214 134.058 202.242C134.255 199.768 134.649 197.349 135.014 195.184C135.295 193.496 135.549 191.725 135.717 189.897C135.83 190.403 135.942 190.937 136.055 191.472C136.505 193.637 136.955 195.971 137.433 198.812C137.63 199.993 137.855 201.118 138.051 202.13L138.079 202.102Z" fill="white" />
  <path d="M155.45 201.256C154.943 201.284 154.325 201.678 154.156 201.791C154.1 201.819 154.072 201.875 154.043 201.931C153.818 202.522 153.509 203.225 153.2 203.787C152.89 204.35 152.525 204.771 150.894 204.968C150.669 205.025 150.247 204.828 149.909 204.575C149.516 204.293 149.178 203.928 148.953 203.647C147.969 202.381 147.154 200.272 146.816 198.247C146.788 197.825 146.732 197.404 146.675 196.982C146.619 196.56 146.591 196.11 146.535 195.688C146.507 195.491 146.45 194.591 146.422 194.057C146.394 193.579 146.422 193.016 146.45 192.313V192.145C146.675 190.345 146.872 188.826 147.379 187.448C147.857 186.099 148.672 185.03 149.656 184.411L150.219 184.102C150.444 183.933 150.753 183.849 151.062 183.821C151.541 183.793 151.906 183.961 152.3 184.383C152.469 184.58 152.694 184.833 152.947 185.058C153.2 185.227 153.481 185.424 153.79 185.367C154.072 185.367 154.465 185.199 154.775 184.636C154.775 184.636 154.775 184.58 154.803 184.552C154.859 184.299 154.887 184.074 154.859 183.877C154.831 183.23 154.212 182.133 152.975 181.655C152.131 181.374 151.203 181.262 150.275 181.318C148.953 181.402 148.138 181.599 147.238 182.555C146.563 183.286 145.916 184.158 145.551 184.861C145.354 185.227 145.269 185.395 145.269 185.48C144.369 187.533 143.807 190.317 143.723 193.129C143.723 193.888 143.723 195.547 143.779 196.363C143.92 198.557 144.341 200.581 145.073 202.269C145.663 203.731 146.338 204.856 147.069 205.7C148.11 206.993 149.066 207.612 150.078 207.724C150.388 207.752 150.725 207.781 151.034 207.781C151.203 207.781 151.372 207.781 151.541 207.781C153.087 207.696 154.212 207.106 154.859 206.037L154.915 205.924C155.112 205.559 155.534 204.856 155.815 204.068C156.293 202.915 156.434 202.212 156.293 201.791C156.209 201.566 155.984 201.2 155.365 201.228L155.45 201.256Z" fill="white" />
  <path d="M181.741 205.448C181.741 204.998 181.712 204.52 181.741 204.379L181.656 203.058C181.656 203.058 181.628 202.861 181.544 202.804C181.459 202.748 181.403 202.72 181.291 202.748C181.122 202.664 180.813 202.523 180.335 202.551C180.25 202.551 180.138 202.551 180.053 202.551C180.053 202.017 180.053 201.483 180.025 200.808V200.695C179.997 199.374 179.997 199.345 179.969 198.867L179.913 197.574C179.997 195.183 179.941 194.649 179.913 194.087C179.885 193.552 179.856 193.074 179.8 192.624C179.8 192.371 179.772 192.118 179.744 191.893C179.744 191.64 179.688 191.415 179.688 191.162C179.688 190.909 179.688 190.656 179.66 190.403C179.66 190.15 179.66 189.925 179.66 189.672L179.716 189.418C179.716 189.418 179.716 189.362 179.716 189.334C179.631 188.04 179.519 185.144 179.575 184.019C179.575 183.428 179.519 182.95 179.406 182.613C179.322 181.797 179.182 181.516 178.928 181.235C178.872 181.179 178.788 181.122 178.732 181.066C178.675 180.982 178.619 180.926 178.563 180.869C178.197 180.532 177.691 180.532 177.354 180.56C177.129 180.56 176.904 180.588 176.651 180.56C175.891 180.56 175.104 180.588 174.316 180.644L173.248 180.701C172.91 180.701 172.629 180.701 172.348 180.701L171.026 180.785C171.026 180.785 170.829 180.785 170.773 180.897C170.717 181.01 170.689 181.038 170.717 181.151C170.632 181.319 170.492 181.629 170.52 182.135C170.52 182.247 170.52 182.416 170.576 182.585V182.697C170.632 182.838 170.661 183.007 170.801 183.203C170.857 183.26 170.914 183.316 170.998 183.372L171.111 183.85C171.167 184.075 171.195 184.272 171.223 184.385C171.139 184.863 171.167 186.747 171.223 187C171.392 188.012 170.351 196.027 168.636 198.671C168.636 198.699 168.608 198.727 168.58 198.783C168.495 199.092 168.242 199.542 167.877 199.964C166.892 201.651 165.739 202.917 165.008 203.479H164.389C164.389 203.479 164.305 203.536 164.249 203.564C164.164 203.62 164.108 203.648 164.024 203.733C163.968 203.733 163.911 203.789 163.827 203.845C163.433 204.239 163.433 204.604 163.518 204.886C163.658 205.307 163.771 205.87 163.799 206.629C163.714 206.77 163.686 206.995 163.686 207.163C163.63 207.445 163.63 207.81 163.63 208.063C163.63 208.654 163.686 209.273 164.136 209.666C164.193 209.723 164.249 209.722 164.305 209.751C164.446 209.751 164.586 209.807 164.727 209.863C164.811 209.863 164.896 209.891 164.952 209.891C165.008 209.891 165.036 209.891 165.092 209.891C165.317 209.891 165.767 209.807 166.02 209.526C166.33 209.16 166.358 208.654 166.33 208.26C166.33 208.063 166.33 207.838 166.33 207.613L166.274 206.123C166.892 206.039 167.708 205.926 168.383 205.898C169.367 205.842 173.135 205.701 176.172 205.617C177.41 205.56 178.507 205.532 179.21 205.504C179.21 205.56 179.21 205.645 179.21 205.729C179.125 205.87 179.097 206.095 179.097 206.263C179.041 206.545 179.041 206.91 179.041 207.163C179.041 207.754 179.097 208.373 179.547 208.766C179.603 208.823 179.66 208.851 179.716 208.851C179.856 208.851 179.997 208.907 180.138 208.963C180.278 208.991 180.391 208.963 180.503 208.963C180.728 208.963 181.178 208.879 181.431 208.569C181.769 208.204 181.769 207.698 181.741 207.304C181.741 207.107 181.741 206.882 181.741 206.657C181.741 206.32 181.741 205.926 181.713 205.56L181.741 205.448ZM173.642 185.763C173.642 184.694 173.613 183.878 173.473 183.175C173.557 183.175 173.67 183.175 173.782 183.175C174.879 183.203 175.61 183.175 176.201 183.232C176.341 183.232 176.454 183.26 176.594 183.26V183.457C176.679 183.794 176.707 184.16 176.819 186.213V186.297C176.819 186.522 176.876 188.378 176.904 190.543C176.96 194.284 177.044 198.952 177.101 199.655C177.129 200.02 177.157 200.245 177.297 200.358C177.354 201.145 177.382 201.933 177.41 202.72C176.229 202.804 174.204 202.945 170.211 203.17L168.326 203.283C168.72 202.833 169.058 202.355 169.395 201.848C169.648 201.511 169.873 201.173 170.07 200.864L170.211 200.639C170.323 200.442 170.436 200.274 170.548 200.105C170.886 199.599 171.223 199.092 171.336 198.446C172.77 195.802 173.388 192.934 173.585 187.872C173.585 187.703 173.641 187.562 173.67 187.394L173.726 187.225C173.726 187.225 173.726 187.169 173.726 187.141C173.726 186.634 173.726 186.156 173.698 185.734L173.642 185.763Z" fill="white" />
  <path d="M195.249 187.336C195.109 186.858 194.968 186.324 194.855 185.846C194.743 185.34 194.574 184.862 194.406 184.412L194.321 184.159C194.04 183.315 193.702 182.274 193.224 181.712C193.056 181.487 192.634 181.178 191.931 180.671C191.509 180.362 190.975 180.025 190.384 179.687C189.737 179.35 189.09 179.181 188.472 179.209C187.741 179.237 187.009 179.575 186.363 180.137C185.013 181.234 184.366 182.921 184.225 183.399C183.41 185.79 183.494 188.686 183.691 191.92L183.888 195.379C183.888 196.167 183.972 196.926 184.057 197.77C184.225 199.176 184.45 200.779 185.097 202.241C185.491 203.141 186.447 204.463 187.291 204.997C187.881 205.334 188.556 205.531 189.259 205.531C189.344 205.531 189.428 205.531 189.512 205.531C190.019 205.503 190.525 205.391 191.087 205.194C192.353 204.716 193.365 203.928 193.899 203.31C194.04 203.141 194.181 202.944 194.377 202.691C194.715 202.185 194.996 201.622 195.249 201.032C195.446 200.497 195.643 199.822 195.727 198.698V198.585C195.755 198.135 195.784 197.657 195.84 197.207C196.008 196.082 196.065 194.845 196.065 194.198L195.98 192.679C195.868 190.852 195.727 188.967 195.277 187.393L195.249 187.336ZM192.803 197.46V197.601C192.746 198.529 192.662 199.485 192.493 200.132C192.296 200.807 191.79 201.65 191.172 202.325C190.834 202.719 190.3 203.169 189.653 203.225C189.484 203.225 189.344 203.225 189.203 203.169C188.922 203.085 188.584 202.719 188.275 202.185C187.937 201.622 187.684 201.116 187.6 200.694C187.375 200.047 187.206 199.373 187.094 198.557C186.925 197.235 186.728 195.689 186.644 194.142C186.616 193.439 186.56 192.708 186.503 192.005C186.447 191.526 186.419 191.105 186.391 190.627C186.222 187.758 186.475 185.452 187.122 183.737C187.403 183.427 187.628 183.118 187.797 182.837C187.937 182.584 188.134 182.387 188.359 182.19C188.697 182.274 189.006 182.302 189.344 182.331H189.681C189.906 182.387 190.075 182.415 190.243 182.499C190.497 182.612 190.778 182.809 191.059 183.568L191.2 183.99C191.425 184.637 191.65 185.227 191.762 185.902C191.846 186.324 191.959 186.746 192.071 187.083C192.493 188.546 192.634 189.895 192.774 191.245C192.774 191.611 192.831 191.92 192.859 192.258C192.859 192.398 192.859 192.567 192.915 192.708C192.915 192.848 192.943 192.989 192.943 193.129C193.028 194.62 192.943 195.998 192.774 197.488L192.803 197.46Z" fill="white" />
  <path d="M202.702 189.643C202.702 189.278 202.702 188.94 202.673 188.603C202.673 188.181 202.645 187.759 202.645 187.366C202.561 185.819 202.477 184.356 202.477 182.922C202.477 182.444 202.477 181.966 202.477 181.46C202.814 181.46 203.123 181.46 203.405 181.516C203.714 181.544 204.051 181.572 204.305 181.572C204.895 181.572 205.514 181.488 205.907 181.066C205.936 181.01 205.964 180.954 205.992 180.897C205.992 180.757 206.048 180.616 206.104 180.476C206.132 180.335 206.132 180.223 206.104 180.11C206.104 179.885 206.02 179.435 205.711 179.182C205.345 178.873 204.867 178.845 204.501 178.873C204.276 178.873 204.051 178.873 203.798 178.873C203.067 178.873 202.252 178.901 201.464 178.957H201.07C201.07 178.957 200.817 178.957 200.705 178.957L199.974 179.013C199.974 179.013 199.917 179.013 199.889 179.013C199.749 179.013 199.636 179.013 199.496 179.013L198.174 179.098C198.174 179.098 197.977 179.098 197.921 179.21C197.865 179.323 197.836 179.351 197.865 179.435C197.78 179.604 197.64 179.885 197.668 180.419C197.668 180.56 197.668 180.729 197.724 180.869V180.982C197.78 181.122 197.808 181.291 197.949 181.488C198.343 181.882 198.708 181.882 198.989 181.797C199.13 181.769 199.243 181.713 199.411 181.685C199.496 183.26 199.552 185.256 199.58 187.675C199.58 190.065 199.636 192.456 199.721 194.762C199.721 195.043 199.721 195.324 199.749 195.577C199.749 195.858 199.749 196.14 199.777 196.421C199.777 196.702 199.805 196.955 199.833 197.208C199.833 197.461 199.889 197.714 199.889 197.967C200.002 199.599 200.171 201.764 200.255 203.339C200.255 203.508 200.255 203.704 200.255 203.957C200.255 204.632 200.677 204.998 201.099 204.998C201.127 204.998 201.183 204.998 201.211 204.998C201.464 204.998 201.717 204.97 201.999 204.885H202.083C202.083 204.885 202.195 204.829 202.223 204.829C202.589 204.829 202.955 204.829 203.292 204.914C203.405 204.914 203.686 204.97 203.967 204.914C204.051 204.914 204.136 204.914 204.22 204.885C204.305 204.885 204.361 204.885 204.445 204.885C208.017 204.52 210.013 202.158 210.069 198.221V198.136C210.069 197.855 210.069 197.602 210.069 197.321C209.985 195.971 209.563 194.593 208.86 193.468C207.623 191.443 205.739 190.318 202.617 189.728L202.702 189.643ZM206.02 194.115C206.92 195.38 207.117 196.814 207.145 197.574C207.201 198.502 207.06 199.908 206.526 200.977C205.992 202.017 205.233 202.523 204.164 202.608C203.911 202.608 203.686 202.608 203.461 202.608C203.376 201.708 203.32 200.864 203.264 200.048C203.151 198.249 203.095 196.505 203.011 194.762C203.011 194.312 202.983 193.862 202.955 193.384C202.955 193.046 202.955 192.709 202.927 192.343C204.248 192.427 205.261 193.018 206.02 194.115Z" fill="white" />
  <path d="M224.3 200.303C224.187 199.881 224.103 199.544 224.075 199.262C224.075 199.122 224.075 199.037 224.103 198.953C224.103 198.953 224.103 198.897 224.103 198.869C224.103 198.784 224.159 198.7 224.131 198.559C224.131 198.278 223.99 198.053 223.85 197.8C223.793 197.716 223.709 197.575 223.681 197.434C223.512 196.844 223.372 196.169 223.231 195.269L222.331 190.348C222.05 188.829 221.74 187.226 221.375 185.679L221.234 185.145C221.094 184.611 220.981 184.105 220.869 183.627C220.728 182.952 220.503 182.136 220.222 181.321L219.856 180.336C219.856 180.336 219.772 180.111 219.744 179.999C219.688 179.83 219.631 179.689 219.547 179.521C219.35 179.071 219.125 178.621 218.535 178.143C218.113 177.862 217.775 177.749 217.382 177.749C217.157 177.749 216.96 177.862 216.763 177.918C216.679 177.946 216.622 178.03 216.594 178.115C216.341 178.874 216.004 179.999 215.863 181.152C215.779 181.686 215.722 182.192 215.666 182.755L215.469 184.301C215.272 186.242 214.907 188.323 214.541 190.32C214.513 190.516 214.485 190.713 214.429 190.91C214.401 191.107 214.344 191.332 214.316 191.501C214.007 193.3 213.726 194.932 213.557 196.619C213.501 197.097 213.444 197.659 213.473 198.278C213.473 198.869 213.444 199.487 213.388 200.022C213.388 200.247 213.304 200.528 213.248 200.781L213.051 201.653C212.938 202.187 212.91 202.553 212.91 202.862C212.91 203.003 212.966 203.171 212.995 203.312C213.051 203.621 213.332 203.902 213.838 204.184C214.119 204.352 214.401 204.409 214.682 204.409C214.71 204.409 214.738 204.409 214.766 204.409C214.907 204.409 215.019 204.352 215.104 204.324C215.104 204.324 215.188 204.324 215.188 204.296C215.554 204.127 215.807 203.818 215.947 203.312C216.116 202.665 216.144 201.85 216.172 201.09V200.612C216.172 200.275 216.257 200.022 216.313 199.825C216.482 199.825 216.65 199.825 216.791 199.825C217.016 199.825 217.213 199.825 217.438 199.825C217.719 199.825 218 199.797 218.253 199.769C218.535 199.769 218.844 199.712 219.097 199.712C219.8 199.684 220.419 199.712 220.981 199.825C221.066 200.134 221.122 200.528 221.178 200.922V201.231C221.262 201.793 221.347 202.524 221.712 203.059C221.825 203.256 221.965 203.368 222.106 203.452C222.415 203.706 222.809 203.818 223.203 203.818C223.259 203.818 223.287 203.818 223.343 203.818C223.878 203.818 224.637 203.452 224.637 202.637C224.637 202.018 224.412 201.259 224.131 200.472V200.359L224.3 200.303ZM220.644 197.209C219.969 197.153 219.238 197.153 218.45 197.238C218.085 197.294 217.691 197.322 217.325 197.322C217.1 197.322 216.847 197.322 216.622 197.35C216.819 194.875 217.213 192.429 217.578 190.291C217.86 188.604 218.113 186.832 218.281 185.004C218.394 185.511 218.506 186.045 218.619 186.579C219.069 188.688 219.491 191.023 219.997 193.919C220.194 195.1 220.419 196.253 220.616 197.238L220.644 197.209Z" fill="white" />
  <path d="M235.821 188.63C236.918 187.309 237.452 185.565 237.368 183.625C237.255 181.431 236.187 179.35 234.555 178.028C233.656 177.354 232.362 176.847 231.04 176.679C230.478 176.622 229.972 176.594 229.522 176.622C228.594 176.679 227.806 176.904 227.187 177.297C227.103 177.354 227.047 177.466 227.047 177.55C227.047 178.253 227.103 178.956 227.131 179.631C227.216 181.206 227.356 182.809 227.581 184.721C227.778 186.549 228.031 188.715 228.144 191.021C228.284 193.496 228.2 196.336 228.144 198.557C228.144 198.951 228.087 199.345 228.059 199.739C228.003 200.048 228.031 200.273 228.059 200.498C228.087 201.004 228.256 201.37 228.594 201.707C228.762 201.848 228.847 202.045 228.903 202.241C228.903 202.326 228.959 202.41 229.044 202.438C229.128 202.495 229.24 202.551 229.325 202.607C229.437 202.663 229.55 202.72 229.634 202.776C229.859 202.945 230.112 203.029 230.393 203.029H230.478C230.646 203.029 230.815 203.029 230.984 203.029C231.096 203.029 231.209 203.029 231.321 203.029C232.671 202.945 234.162 202.523 235.315 201.848C236.636 201.06 237.874 200.076 238.774 199.064C239.899 197.77 240.461 196.167 240.349 194.508C240.18 191.668 238.746 189.755 235.877 188.574L235.821 188.63ZM233.627 186.353C233.009 187.365 232.249 188.096 231.49 188.349C231.293 188.434 231.237 188.462 231.125 188.434H231.012C231.012 188.434 230.984 188.434 230.956 188.434C230.787 186.606 230.59 185.115 230.393 183.709C230.225 182.612 230.112 181.572 230.056 180.644C230.028 180.138 230.028 179.575 230 179.041C231.209 178.928 232.278 179.266 233.093 179.997C233.937 180.728 234.443 181.909 234.527 183.231C234.555 184.215 234.218 185.368 233.599 186.324L233.627 186.353ZM231.181 191.274C231.434 191.19 231.659 191.133 231.884 191.105C232.165 191.049 232.474 190.965 232.812 190.852C233.009 190.796 233.206 190.711 233.318 190.599C233.459 190.515 233.487 190.486 233.515 190.486C233.571 190.486 233.656 190.486 233.852 190.571C234.077 190.655 234.302 190.74 234.471 190.74C235.68 191.077 236.636 191.949 237.086 193.186C237.227 193.524 237.283 193.917 237.311 194.311C237.368 195.239 237.115 196.195 236.552 197.095C236.243 197.601 235.624 198.164 235.09 198.642L234.949 198.754C233.74 199.851 232.615 200.357 231.237 200.47C231.125 198.979 231.153 197.433 231.181 196.139C231.181 196.027 231.181 195.886 231.181 195.773C231.181 195.661 231.181 195.548 231.181 195.408V194.705C231.181 193.608 231.209 192.511 231.153 191.33L231.181 191.274Z" fill="white" />
  <path d="M255.815 188.067C255.815 187.196 255.815 186.38 255.815 185.536C255.815 185.002 255.787 184.44 255.759 183.877V183.793C255.731 183.315 255.703 182.865 255.647 182.415C255.647 182.19 255.618 181.993 255.59 181.796C255.562 181.431 255.534 181.065 255.534 180.756C255.534 180.39 255.534 180.024 255.506 179.631C255.506 179.265 255.478 178.9 255.478 178.506V178.393C255.478 178 255.422 177.522 255.084 177.212C254.803 176.959 254.381 176.847 253.959 176.847H253.847C253.312 176.875 252.834 177.156 252.637 177.55C252.637 177.55 252.637 177.606 252.637 177.634C252.019 181.009 251.147 184.046 249.797 187.505C249.207 188.967 248.588 190.401 247.885 192.033C247.407 193.129 246.929 194.17 246.507 195.21C246.507 194.367 246.451 193.579 246.423 192.792V192.707C246.282 189.502 246.198 186.858 246.141 184.355C246.085 183.09 246.085 181.684 246.141 179.799C246.141 179.687 246.141 179.575 246.141 179.462C246.141 179.378 246.141 179.293 246.169 179.181C246.169 179.096 246.169 179.012 246.169 178.9C246.169 178.703 246.198 178.478 246.169 178.281C246.169 177.915 246.057 177.578 245.888 177.297C245.888 177.269 245.832 177.24 245.804 177.212C245.579 177.044 245.27 176.959 244.988 176.987C244.623 176.987 244.201 177.156 243.751 177.409C243.667 177.465 243.61 177.55 243.61 177.634C243.47 178.562 243.442 179.546 243.498 180.587C243.554 181.684 243.582 182.668 243.554 183.596C243.554 185.93 243.638 188.602 243.807 191.526C243.92 193.748 244.032 196.645 244.032 199.485C244.032 199.963 244.032 200.385 244.004 200.807C243.948 201.313 243.92 201.763 244.004 202.241C244.004 202.325 244.06 202.381 244.117 202.438C244.398 202.663 244.707 202.775 245.016 202.775C245.016 202.775 245.073 202.775 245.101 202.775C245.27 202.775 245.466 202.719 245.607 202.635C246.085 202.494 246.423 202.297 246.732 202.016C246.985 201.763 247.21 201.425 247.463 201.003C248.082 199.991 248.616 198.81 249.094 197.46C249.882 195.267 250.669 193.354 251.372 191.779C252.047 190.261 252.553 188.686 253.003 187.224C253.059 187.083 253.087 186.942 253.144 186.802C253.144 187.364 253.144 187.955 253.144 188.658C253.087 190.317 253.116 191.611 253.144 192.736C253.312 195.688 253.537 198.81 253.819 201.931C253.819 202.044 253.903 202.156 254.015 202.185C254.325 202.297 254.606 202.353 254.915 202.353C255.534 202.325 255.984 201.931 256.237 201.172C256.35 200.778 256.406 200.357 256.462 199.85C256.462 199.4 256.49 198.979 256.546 198.669V198.585C256.321 196.729 256.153 194.788 256.04 192.848C255.956 191.301 255.9 189.783 255.843 188.124L255.815 188.067Z" fill="white" />
  <path d="M274.742 197.911L274.686 196.955C274.602 195.858 274.517 194.761 274.433 193.636C274.377 192.512 274.321 191.359 274.293 190.206V189.924C274.236 188.799 274.18 187.675 274.124 186.55C274.039 185.087 273.955 183.766 273.843 182.444C273.758 181.431 273.646 180.447 273.477 179.435C273.393 178.844 273.308 178.197 273.28 177.551C273.28 177.213 273.224 176.819 273.252 176.482V175.526C273.308 175.217 273.252 174.935 273.027 174.71C272.83 174.485 272.521 174.345 272.155 174.345C271.987 174.345 271.79 174.401 271.621 174.457H271.115C270.89 174.542 270.609 174.57 270.271 174.598L269.202 174.654C268.387 174.71 266.728 174.823 266.025 174.907C265.8 174.935 265.575 174.963 265.35 174.963C265.209 174.963 265.097 174.963 264.956 175.02C264.9 174.992 264.844 174.963 264.787 174.963H264.337C264.337 174.963 264.281 174.963 264.253 174.963L263.803 175.076C263.803 175.076 263.691 175.132 263.634 175.188L263.212 175.723C263.212 175.723 263.128 175.863 263.156 175.92L264.084 192.287L264 194.114L263.887 194.396L263.691 195.38L263.522 195.661L263.381 196.111L263.184 196.561L263.016 196.73C263.016 196.73 262.959 196.786 262.959 196.842L262.734 197.348L262.509 197.63L262.228 197.911L261.947 197.995C261.947 197.995 261.834 198.052 261.806 198.108L261.497 198.501L261.216 198.586C261.216 198.586 261.16 198.586 261.131 198.642L260.822 198.867L260.513 198.783C260.513 198.783 260.372 198.783 260.316 198.783L259.894 198.951C259.894 198.951 259.782 199.008 259.753 199.064L259.332 199.683C259.332 199.683 259.275 199.795 259.275 199.879V200.611C259.275 200.611 259.332 200.751 259.388 200.779L259.866 201.37C259.866 201.37 260.007 201.482 260.119 201.482C260.175 201.482 260.232 201.482 260.26 201.454L260.625 201.257L261.891 200.864L262.678 200.695C262.678 200.695 262.791 200.639 262.847 200.611L263.184 200.245L263.494 200.076C263.494 200.076 263.55 200.048 263.578 200.02L263.859 199.683L264.169 199.458C264.169 199.458 264.225 199.401 264.253 199.373L264.506 198.951L264.759 198.726C264.759 198.726 264.815 198.67 264.815 198.642L265.012 198.248L265.181 198.108C265.181 198.108 265.237 198.023 265.265 197.995L265.462 197.517L265.631 197.292C265.631 197.292 265.687 197.208 265.687 197.18L265.828 196.617L266.081 195.802L266.165 195.324L266.278 194.958L266.362 193.889L266.446 193.496V193.215V192.596V192.315L265.631 177.776C265.687 177.776 265.743 177.776 265.8 177.776C266.081 177.776 266.418 177.719 266.7 177.635C267.121 177.551 268.021 177.438 268.837 177.354C269.202 177.326 269.568 177.269 269.877 177.241C270.018 177.241 270.159 177.213 270.299 177.185V177.466C270.496 178.563 270.609 179.66 270.665 180.7L270.834 182.163C270.834 182.416 270.862 182.669 270.89 182.922C270.89 183.175 270.946 183.428 270.946 183.681C270.946 183.934 270.946 184.159 270.974 184.412C270.974 184.665 270.974 184.919 270.974 185.144C270.974 185.622 270.974 186.128 271.03 186.662C271.058 187.168 271.087 187.703 271.143 188.237C271.283 190.346 271.48 192.371 271.649 194.368C271.79 195.858 271.902 197.32 271.987 198.811L272.071 200.273C272.071 200.273 272.127 200.442 272.183 200.498C272.493 200.751 272.971 200.892 273.449 200.864C273.927 200.864 274.293 200.667 274.489 200.358C274.546 200.273 274.742 199.964 274.658 198.867C274.658 198.586 274.63 198.277 274.574 198.023L274.742 197.911Z" fill="white" />
  <path d="M291.252 186.042C291.252 185.171 291.252 184.327 291.252 183.511C291.252 182.949 291.223 182.358 291.167 181.74C291.167 181.262 291.111 180.84 291.055 180.418C291.055 180.193 291.027 179.996 290.999 179.771C290.999 179.406 290.942 179.068 290.942 178.731C290.942 178.365 290.942 178 290.914 177.606C290.914 177.24 290.886 176.875 290.886 176.481V176.369C290.886 175.975 290.83 175.497 290.492 175.187C290.211 174.934 289.789 174.822 289.367 174.85H289.255C288.721 174.878 288.243 175.159 288.046 175.553C288.046 175.553 288.046 175.609 288.046 175.637C287.427 179.012 286.555 182.049 285.205 185.508C284.615 186.999 283.94 188.545 283.293 190.036C282.815 191.104 282.365 192.173 281.915 193.214C281.915 192.398 281.859 191.582 281.831 190.823V190.711C281.69 187.589 281.606 184.918 281.55 182.358C281.493 181.093 281.493 179.715 281.55 177.803C281.55 177.69 281.55 177.578 281.55 177.465C281.55 177.381 281.55 177.297 281.578 177.184C281.578 177.1 281.578 177.015 281.578 176.931C281.578 176.734 281.606 176.509 281.578 176.312C281.578 175.947 281.465 175.609 281.296 175.328C281.296 175.3 281.24 175.272 281.212 175.244C280.959 175.047 280.621 174.991 280.397 175.019C280.031 175.019 279.609 175.187 279.159 175.44C279.075 175.497 279.019 175.581 279.019 175.665C278.878 176.593 278.85 177.578 278.906 178.618C278.962 179.715 278.99 180.699 278.962 181.627C278.962 183.961 279.047 186.633 279.215 189.558C279.328 191.807 279.44 194.732 279.44 197.516C279.44 197.994 279.44 198.416 279.412 198.838C279.356 199.344 279.328 199.794 279.412 200.272C279.412 200.357 279.469 200.413 279.525 200.469C279.806 200.694 280.115 200.806 280.425 200.806C280.453 200.806 280.481 200.806 280.509 200.806C280.678 200.806 280.875 200.75 281.015 200.666C281.493 200.525 281.831 200.328 282.112 200.047C282.365 199.794 282.59 199.457 282.843 199.035C283.462 198.022 283.996 196.869 284.474 195.491C285.262 193.298 286.049 191.386 286.752 189.811C287.427 188.292 287.933 186.717 288.383 185.255C288.439 185.114 288.468 184.974 288.524 184.833C288.524 185.396 288.524 186.014 288.524 186.689C288.468 188.32 288.496 189.614 288.524 190.767C288.692 193.776 288.917 196.869 289.199 199.963C289.199 200.075 289.283 200.188 289.396 200.216C289.705 200.328 289.986 200.385 290.295 200.385C290.914 200.357 291.364 199.963 291.617 199.204C291.73 198.838 291.786 198.388 291.842 197.882C291.842 197.432 291.87 197.01 291.927 196.701V196.616C291.702 194.817 291.533 192.876 291.42 190.879C291.336 189.333 291.28 187.786 291.252 186.155V186.042Z" fill="white" />
  <path d="M311.551 184.27C312.648 182.948 313.182 181.205 313.098 179.264C312.957 177.043 311.945 174.99 310.286 173.668C309.386 172.993 308.092 172.487 306.771 172.318C306.208 172.262 305.702 172.234 305.252 172.262C304.324 172.318 303.537 172.543 302.918 172.937C302.834 172.993 302.777 173.106 302.777 173.19C302.777 173.893 302.834 174.596 302.862 175.271C302.946 176.846 303.087 178.449 303.312 180.361C303.509 182.189 303.762 184.354 303.874 186.66C304.015 189.135 303.93 191.976 303.874 194.197C303.874 194.535 303.846 194.928 303.818 195.294V195.378C303.762 195.688 303.79 195.913 303.79 196.138C303.818 196.644 303.987 197.009 304.324 197.347C304.493 197.487 304.605 197.684 304.633 197.881C304.633 197.965 304.69 198.05 304.774 198.106C304.858 198.162 304.971 198.219 305.055 198.275C305.168 198.331 305.28 198.387 305.365 198.444C305.59 198.612 305.843 198.697 306.124 198.697H306.208C306.377 198.697 306.546 198.697 306.714 198.697C306.827 198.697 306.939 198.697 307.052 198.697C308.402 198.612 309.892 198.19 311.045 197.516C312.367 196.728 313.604 195.744 314.504 194.731C315.629 193.438 316.192 191.835 316.079 190.176C315.91 187.335 314.476 185.423 311.608 184.242L311.551 184.27ZM309.358 181.992C308.739 183.005 307.98 183.736 307.221 183.989C307.052 184.073 306.968 184.101 306.855 184.073H306.743C306.743 184.073 306.714 184.073 306.686 184.073C306.518 182.245 306.321 180.755 306.124 179.349C305.955 178.252 305.843 177.211 305.786 176.283C305.758 175.777 305.758 175.215 305.73 174.68C306.939 174.568 308.008 174.905 308.824 175.637C309.667 176.368 310.173 177.549 310.258 178.871C310.286 179.855 309.948 181.008 309.33 181.964L309.358 181.992ZM306.911 186.914C307.164 186.829 307.389 186.773 307.614 186.745C307.896 186.689 308.205 186.604 308.542 186.492C308.739 186.435 308.936 186.351 309.049 186.239C309.189 186.154 309.217 186.126 309.245 186.126C309.33 186.126 309.386 186.126 309.583 186.21C309.808 186.295 310.033 186.379 310.202 186.379C311.411 186.717 312.367 187.588 312.817 188.826C312.957 189.163 313.014 189.557 313.042 189.951C313.098 190.879 312.845 191.835 312.283 192.735C311.973 193.241 311.355 193.803 310.82 194.282L310.68 194.394C309.47 195.463 308.346 195.997 306.968 196.109C306.855 194.619 306.883 193.072 306.911 191.779C306.911 191.666 306.911 191.526 306.911 191.413C306.911 191.301 306.911 191.188 306.911 191.047V190.344C306.911 189.248 306.939 188.151 306.883 186.97L306.911 186.914Z" fill="white" />
  <path d="M337.49 190.318C337.434 188.321 337.377 186.268 337.293 184.187C337.293 183.653 337.265 183.118 337.237 182.556C337.209 182.022 337.18 181.544 337.124 181.094C337.124 180.84 337.096 180.587 337.068 180.334C337.068 180.081 337.04 179.856 337.012 179.603C337.012 179.35 337.012 179.097 336.984 178.844C336.984 178.591 336.984 178.338 336.956 178.085V176.566C336.899 175.554 336.899 174.457 336.956 173.332C336.956 172.713 336.899 172.263 336.787 171.87C336.731 171.56 336.534 171.307 336.365 171.138C335.943 170.745 335.437 170.548 334.931 170.548C334.903 170.548 334.874 170.548 334.846 170.548C334.509 170.576 334.228 170.773 334.031 171.026C333.862 171.279 333.806 171.56 333.89 171.841L334.031 172.798C334.087 173.135 334.115 173.529 334.115 173.866C334.143 174.513 334.171 175.16 334.115 175.779C334.087 176.791 334.087 177.775 334.115 178.788C334.115 180.137 334.2 181.515 334.284 182.668C333.665 182.612 332.737 182.668 331.359 182.781C330.684 182.837 329.925 182.893 329.025 182.922C328.463 182.922 328.013 182.781 327.563 182.415C327.085 182.078 326.719 181.487 326.438 180.559C326.185 179.8 325.932 176.538 325.847 175.216C325.735 174.879 325.707 174.541 325.707 174.232V173.979C325.679 173.698 325.622 173.444 325.538 173.163C325.538 173.163 325.538 173.107 325.51 173.079C325.144 172.488 324.469 172.095 323.823 172.123C323.682 172.123 323.598 172.179 323.485 172.207C323.485 172.207 323.401 172.235 323.373 172.263C323.063 172.46 322.895 172.938 322.895 173.754C322.895 174.176 322.923 174.597 323.007 175.75C323.063 176.369 323.12 177.185 323.176 178.338C323.401 179.547 323.626 180.419 323.907 181.122C324.216 181.881 324.526 182.415 325.004 182.978C325.566 183.962 326.382 184.721 327.31 185.115C327.9 185.396 328.547 185.509 329.166 185.481C332.484 185.284 333.778 185.199 334.425 185.115C334.425 185.509 334.481 185.902 334.509 186.268V186.605C334.621 187.73 334.706 188.855 334.79 189.98C334.846 191.189 334.903 192.37 334.931 193.552V194.198C334.931 194.508 334.987 194.789 334.987 195.098C335.043 196.223 335.268 196.476 335.353 196.561C335.578 196.814 335.915 196.954 336.337 196.954C336.365 196.954 336.421 196.954 336.449 196.954C336.956 196.926 337.405 196.729 337.687 196.448C337.743 196.392 337.771 196.308 337.771 196.223L337.687 194.761C337.602 193.299 337.546 191.836 337.518 190.289L337.49 190.318Z" fill="white" />
  <path d="M352.389 192.82C352.277 192.427 352.193 192.061 352.164 191.78C352.164 191.667 352.164 191.555 352.193 191.471C352.193 191.471 352.193 191.386 352.221 191.386C352.221 191.302 352.277 191.217 352.249 191.105C352.249 190.824 352.108 190.599 351.968 190.346C351.911 190.261 351.827 190.121 351.799 189.98C351.63 189.39 351.461 188.686 351.349 187.815L350.899 185.396C350.758 184.581 350.59 183.765 350.449 182.893C350.112 181.122 349.83 179.631 349.493 178.225L349.38 177.691C349.24 177.156 349.127 176.65 349.015 176.144C348.874 175.469 348.649 174.654 348.368 173.838L348.002 172.854C348.002 172.854 347.918 172.629 347.89 172.516C347.834 172.348 347.777 172.207 347.693 172.038C347.468 171.56 347.243 171.138 346.681 170.66C346.287 170.379 345.921 170.267 345.528 170.267C345.303 170.267 345.078 170.351 344.909 170.435C344.825 170.463 344.768 170.548 344.74 170.632C344.487 171.391 344.15 172.544 344.009 173.669C343.925 174.204 343.869 174.71 343.812 175.272L343.615 176.819C343.39 178.759 343.053 180.84 342.687 182.837C342.659 183.034 342.631 183.231 342.575 183.428C342.547 183.625 342.491 183.85 342.462 184.018C342.209 185.509 341.9 187.337 341.703 189.136C341.647 189.699 341.591 190.233 341.619 190.796C341.619 191.386 341.591 192.005 341.534 192.539C341.534 192.764 341.478 192.989 341.394 193.298L341.197 194.17C341.113 194.564 341.028 195.014 341.056 195.408C341.056 195.548 341.113 195.717 341.141 195.858C341.197 196.167 341.478 196.448 342.012 196.729C342.294 196.898 342.575 196.954 342.856 196.954C342.856 196.954 342.912 196.954 342.94 196.954C343.081 196.954 343.194 196.898 343.278 196.87C343.278 196.87 343.362 196.87 343.362 196.842C343.728 196.673 343.981 196.364 344.122 195.858C344.29 195.211 344.318 194.395 344.347 193.636V193.158C344.347 192.82 344.431 192.567 344.487 192.37C344.628 192.37 344.797 192.37 344.937 192.37C345.162 192.37 345.387 192.37 345.612 192.37C345.921 192.37 346.203 192.314 346.512 192.314C346.793 192.314 347.046 192.258 347.299 192.258C348.002 192.23 348.621 192.258 349.184 192.37C349.268 192.68 349.324 193.102 349.38 193.495V193.777C349.465 194.339 349.549 195.07 349.915 195.604C350.027 195.801 350.168 195.942 350.308 195.998C350.618 196.251 351.011 196.364 351.405 196.364C351.433 196.364 351.461 196.364 351.546 196.364C352.08 196.364 352.839 195.998 352.839 195.183C352.839 194.564 352.614 193.833 352.361 193.074L352.305 192.933L352.389 192.82ZM348.734 189.727C348.059 189.671 347.328 189.699 346.54 189.755C346.203 189.811 345.837 189.811 345.5 189.839H345.415C345.19 189.839 344.937 189.868 344.712 189.868C344.881 187.421 345.303 184.974 345.668 182.809C345.95 181.037 346.203 179.294 346.371 177.522C346.484 178.028 346.596 178.563 346.709 179.069C347.159 181.178 347.581 183.428 348.087 186.409C348.284 187.533 348.48 188.63 348.705 189.727H348.734Z" fill="white" />
  <path d="M364.571 169.254C363.952 169.17 363.249 169.198 362.574 169.254C361.927 169.311 361.196 169.367 360.409 169.423H360.296C359.424 169.508 358.637 169.592 357.849 169.704C357.484 169.761 357.062 169.817 356.725 169.817C356.612 169.817 356.5 169.817 356.387 169.817C356.246 169.817 356.134 169.817 356.021 169.817C355.403 169.817 354.84 169.873 354.39 169.929L353.294 170.07C352.872 170.126 352.591 170.379 352.478 170.773C352.478 170.885 352.422 170.998 352.422 171.139C352.45 171.673 352.872 172.067 353.687 172.32C353.969 172.376 354.334 172.376 354.784 172.348C355.178 172.348 355.684 172.263 356.19 172.207C356.837 172.123 357.54 172.01 358.018 171.982C358.103 171.982 358.187 171.982 358.243 171.982C358.356 172.545 358.412 173.079 358.44 173.585C358.44 173.923 358.44 174.288 358.44 174.654V174.766C358.44 175.526 358.44 176.313 358.468 177.1C358.552 178.675 358.749 180.447 358.974 182.303C359.087 183.119 359.115 183.934 359.171 184.721V184.946C359.227 185.565 359.256 186.212 359.256 186.803C359.256 187.449 359.256 188.462 359.312 189.53V189.643C359.34 190.149 359.368 190.655 359.424 191.105C359.424 191.33 359.452 191.668 359.509 192.033C359.593 192.933 359.734 193.833 359.93 194.48C360.155 195.295 360.493 195.52 360.943 195.605C360.999 195.605 361.083 195.633 361.168 195.633C361.533 195.633 361.927 195.38 362.208 194.367C362.405 193.524 362.321 191.893 362.293 191.358V190.599C362.236 190.402 362.236 190.177 362.236 189.896L362.18 188.743C362.18 188.237 362.152 187.731 362.124 187.252C362.124 186.774 362.096 186.324 362.068 185.874L362.011 184.721C361.927 183.456 361.815 181.769 361.562 180.109C361.421 179.125 361.337 178.169 361.308 177.157C361.308 176.06 361.308 174.71 361.224 173.388C361.196 172.826 361.14 172.292 361.083 171.729C361.28 171.729 361.477 171.701 361.702 171.673C362.04 171.673 362.349 171.645 362.658 171.645C362.968 171.645 363.277 171.645 363.586 171.617C363.727 171.617 363.924 171.617 364.149 171.617C364.43 171.617 364.683 171.645 364.88 171.617C365.836 171.504 365.92 170.857 365.892 170.464C365.892 169.986 365.611 169.395 364.599 169.254H364.571Z" fill="white" />
  <path d="M374.591 187.45C374.591 187.45 407.944 174.851 403.922 148.613C400.548 160.396 391.886 168.777 371.582 165.486" fill="#C10230" />
  <path d="M404.349 146.167C403.899 144.593 401.537 144.171 400.75 145.689C395.828 154.998 386.267 161.494 375.749 162.394C373.246 162.619 373.218 166.556 375.749 166.359C385.901 165.515 395.35 160.2 401.396 152.101C401.987 160.425 398.331 168.637 392.454 174.627C389.135 178.03 385.226 180.757 381.008 182.923C379.011 183.963 377.127 185.088 376.424 187.338C375.693 189.644 376.143 192.231 376.34 194.565C376.537 196.899 376.874 199.768 375.299 201.765C373.724 203.761 370.772 204.267 368.437 204.745C365.935 205.252 367.003 209.076 369.478 208.57C374.287 207.586 379.208 205.589 380.192 200.19C380.671 197.574 380.277 194.987 380.08 192.372C379.996 191.247 379.855 189.953 380.108 188.857C380.389 187.675 381.374 187.197 382.386 186.663C391.638 181.826 399.737 174.655 403.449 164.644C405.643 158.766 406.065 152.242 404.349 146.196V146.167Z" fill="#231F20" />
  <path d="M99.5402 197.181C97.5998 206.714 100.271 216.866 108.624 222.49C112.617 225.162 117.538 226.399 122.319 226.287C125.694 226.202 128.984 225.415 132.274 224.656C135.705 223.868 139.136 223.306 142.651 223.025C149.907 222.434 157.218 222.49 164.502 222.265C171.785 222.04 179.21 221.759 186.55 221.309C201.229 220.466 215.796 218.75 230.392 217.175C246.646 215.404 262.985 214.11 279.352 214.419C281.883 214.476 281.883 210.51 279.352 210.454C265.319 210.173 251.286 211.101 237.31 212.479C223.333 213.857 209.413 215.713 195.408 216.754C181.403 217.794 167.061 218.244 152.859 218.553C146.082 218.694 139.22 219.003 132.583 220.494C127.015 221.731 121.56 223.109 115.907 221.506C111.38 220.213 107.527 217.232 105.221 213.126C102.69 208.598 102.324 203.227 103.337 198.221C103.843 195.746 100.046 194.678 99.5121 197.181H99.5402Z" fill="#231F20" />
  <path d="M100.266 164.671C85.8113 167.118 71.4129 170.324 56.677 170.549C49.1965 170.661 41.7161 169.986 34.5169 167.962C31.1704 167.034 28.0207 165.937 25.2366 163.828C22.79 162 20.6527 159.694 18.9092 157.191C17.1937 154.744 15.7876 152.073 14.8034 149.26C14.3534 147.939 13.9878 146.589 13.7629 145.239C13.5379 143.861 13.5941 142.455 13.341 141.077C12.1037 134.693 10.5007 128.394 9.15087 122.038C6.39491 109.046 4.03267 95.8569 4.2014 82.5271C4.37013 68.0161 8.02599 53.6458 17.2219 42.1721C17.9249 41.2722 18.0655 40.0629 17.2219 39.1911C16.4907 38.46 14.9721 38.3193 14.2409 39.1911C5.55126 50.1024 1.19235 63.2073 0.236206 76.987C-0.71994 90.7387 1.36108 104.575 4.06079 118.045C5.41065 124.794 6.95735 131.516 8.41969 138.265C8.75716 139.783 9.23523 141.358 9.3196 142.905C9.40396 144.423 9.60082 145.914 9.91016 147.404C10.5851 150.526 11.8225 153.535 13.3692 156.319C16.4345 161.859 21.3277 167.455 27.2614 169.986C34.3763 172.995 42.3066 174.261 49.9558 174.655C66.0416 175.498 81.9024 172.18 97.6506 169.396C96.6383 172.658 95.9071 176.145 96.2727 179.407C96.5539 182.079 100.744 182.107 100.463 179.407C100.041 175.358 101.419 171.027 102.825 167.287C103.444 165.627 101.644 164.474 100.238 164.699L100.266 164.671Z" fill="#231F20" />
</svg>